<svg width="64" height="64" viewBox="0 0 64 64" fill="none" xmlns="http://www.w3.org/2000/svg">
<path d="M2 31.9625H28.2172C32.1905 31.9625 36.0011 33.5409 38.8106 36.3505C41.6201 39.16 43.1985 42.9705 43.1985 46.9438C43.1985 50.9171 41.6201 54.7276 38.8106 57.5372C36.0011 60.3467 32.1905 61.9251 28.2172 61.9251H2V9.49064C2 7.504 2.78919 5.59872 4.19396 4.19396C5.59872 2.78919 7.504 2 9.49064 2H20.7266C24.6999 2 28.5104 3.57838 31.3199 6.38792C34.1295 9.19745 35.7079 13.008 35.7079 16.9813C35.7079 20.9546 34.1295 24.7651 31.3199 27.5746C28.5104 30.3842 24.6999 31.9625 20.7266 31.9625H9.49064M61.9251 61.9251H62" stroke="white" stroke-width="4" stroke-linecap="round" stroke-linejoin="round"/>
</svg>
