<svg width="66" height="64" viewBox="0 0 66 64" fill="none" xmlns="http://www.w3.org/2000/svg">
<mask id="path-1-outside-1_407_16" maskUnits="userSpaceOnUse" x="0" y="0" width="66" height="64" fill="black">
<rect fill="white" width="66" height="64"/>
<path d="M60.1 33.7984C59.7182 32.7074 58.6818 31.9983 57.4545 31.9983H37.8455C36.5909 31.9983 35.5818 32.7074 35.1727 33.7984L31.2727 45.0081V60.0363C31.2727 61.0727 32.1455 62 33.1818 62H34.8727C35.9091 62 36.7273 60.9636 36.7273 59.9272V56.5451H58.5455V59.9272C58.5455 60.9636 59.3909 62 60.4273 62H62.0909C63.1273 62 64 61.0727 64 60.0363V45.0081L60.1 33.7984M37.8455 34.7257H57.4545L60.2636 42.908H35.0364L37.8455 34.7257M36.7273 51.0903C35.2273 51.0903 34 49.8629 34 48.3629C34 46.8628 35.2273 45.6354 36.7273 45.6354C38.2273 45.6354 39.4545 46.8628 39.4545 48.3629C39.4545 49.8629 38.2273 51.0903 36.7273 51.0903ZM58.5455 51.0903C57.0455 51.0903 55.8182 49.8629 55.8182 48.3629C55.8182 46.8628 57.0455 45.6354 58.5455 45.6354C60.0455 45.6354 61.2727 46.8628 61.2727 48.3629C61.2727 49.8629 60.0455 51.0903 58.5455 51.0903ZM19.4364 38.8987L20.3636 45.6354L17.5 48.5265L12.7 39.8533L4 35.0257L6.89091 32.0801L13.7091 33.0893L24.2636 22.5341L4 11.8699L7.87273 8.02421L32.9364 13.8064L43.5455 3.19666C45.0727 1.60111 47.8 1.60111 49.3273 3.19666C50.9364 4.80584 50.9364 7.45145 49.3273 8.97881L38.7182 19.5885L40.9545 29.2709H37.8455C35.4727 29.2709 33.4273 30.6346 32.6364 32.8438L32.5545 33.0074L30.0727 28.2617L19.4364 38.8987V38.8987Z"/>
</mask>
<path d="M35.1727 33.7984L33.3001 33.0962L33.2917 33.1186L33.2838 33.1412L35.1727 33.7984ZM31.2727 45.0081L29.3838 44.3509L29.2727 44.6702V45.0081H31.2727ZM36.7273 56.5451V54.5451H34.7273V56.5451H36.7273ZM58.5455 56.5451H60.5455V54.5451H58.5455V56.5451ZM64 45.0081H66V44.6702L65.8889 44.3509L64 45.0081ZM57.4545 34.7257L59.3462 34.0763L58.8825 32.7257H57.4545V34.7257ZM60.2636 42.908V44.908H63.0648L62.1553 42.2586L60.2636 42.908ZM35.0364 42.908L33.1447 42.2586L32.2352 44.908H35.0364V42.908ZM20.3636 45.6354L21.7846 47.0429L22.4796 46.3412L22.345 45.3627L20.3636 45.6354ZM17.5 48.5265L15.7501 49.4949L17.0426 51.8303L18.9209 49.934L17.5 48.5265ZM12.7 39.8533L14.4499 38.8848L14.1721 38.3829L13.6704 38.1045L12.7 39.8533ZM4 35.0257L2.57259 33.6248L0.732408 35.4999L3.0296 36.7745L4 35.0257ZM6.89091 32.0801L7.18374 30.1017L6.17662 29.9526L5.4635 30.6792L6.89091 32.0801ZM13.7091 33.0893L13.4163 35.0677L14.4118 35.2151L15.1233 34.5034L13.7091 33.0893ZM24.2636 22.5341L25.6779 23.9483L27.5975 22.0286L25.1951 20.7643L24.2636 22.5341ZM4 11.8699L2.59075 10.4507L0.657237 12.3707L3.06856 13.6397L4 11.8699ZM7.87273 8.02421L8.32232 6.07539L7.24674 5.82726L6.46348 6.60504L7.87273 8.02421ZM32.9364 13.8064L32.4868 15.7552L33.5669 16.0043L34.3506 15.2205L32.9364 13.8064ZM43.5455 3.19666L44.9597 4.61083L44.9751 4.59539L44.9902 4.57962L43.5455 3.19666ZM49.3273 3.19666L47.8825 4.57962L47.8976 4.59539L47.913 4.61083L49.3273 3.19666ZM49.3273 8.97881L47.9504 7.52823L47.9315 7.54619L47.913 7.56463L49.3273 8.97881ZM38.7182 19.5885L37.3039 18.1743L36.52 18.9583L36.7695 20.0386L38.7182 19.5885ZM40.9545 29.2709V31.2709H43.4691L42.9032 28.8208L40.9545 29.2709ZM32.6364 32.8438L34.4252 33.7382L34.4789 33.6309L34.5193 33.5179L32.6364 32.8438ZM32.5545 33.0074L30.7823 33.9343L32.5946 37.3997L34.3434 33.9018L32.5545 33.0074ZM30.0727 28.2617L31.845 27.3349L30.5834 24.9225L28.6585 26.8475L30.0727 28.2617ZM61.9877 33.1377C61.3051 31.1872 59.4693 29.9983 57.4545 29.9983V33.9983C57.8944 33.9983 58.1313 34.2277 58.2123 34.4591L61.9877 33.1377ZM57.4545 29.9983H37.8455V33.9983H57.4545V29.9983ZM37.8455 29.9983C35.7827 29.9983 34.0107 31.201 33.3001 33.0962L37.0454 34.5006C37.1529 34.2138 37.3991 33.9983 37.8455 33.9983V29.9983ZM33.2838 33.1412L29.3838 44.3509L33.1617 45.6653L37.0617 34.4556L33.2838 33.1412ZM29.2727 45.0081V60.0363H33.2727V45.0081H29.2727ZM29.2727 60.0363C29.2727 62.1039 30.969 64 33.1818 64V60C33.2241 60 33.2557 60.0099 33.2719 60.0173C33.286 60.0237 33.2863 60.0268 33.2798 60.0201C33.2733 60.0133 33.2694 60.0063 33.2684 60.004C33.2679 60.0028 33.2727 60.0137 33.2727 60.0363H29.2727ZM33.1818 64H34.8727V60H33.1818V64ZM34.8727 64C36.0885 64 37.073 63.3915 37.7053 62.656C38.332 61.9269 38.7273 60.9525 38.7273 59.9272H34.7273C34.7273 59.9251 34.7271 59.9426 34.7152 59.9739C34.7031 60.0054 34.6862 60.032 34.672 60.0485C34.6577 60.0652 34.6598 60.0561 34.6916 60.0399C34.7277 60.0215 34.7916 60 34.8727 60V64ZM38.7273 59.9272V56.5451H34.7273V59.9272H38.7273ZM36.7273 58.5451H58.5455V54.5451H36.7273V58.5451ZM56.5455 56.5451V59.9272H60.5455V56.5451H56.5455ZM56.5455 59.9272C56.5455 60.9709 56.9608 61.949 57.5942 62.6711C58.2314 63.3976 59.2178 64 60.4273 64V60C60.5076 60 60.5668 60.0211 60.5959 60.0357C60.6213 60.0485 60.6186 60.0532 60.6013 60.0334C60.5841 60.0138 60.5667 59.9861 60.5552 59.9568C60.5438 59.9277 60.5455 59.9161 60.5455 59.9272H56.5455ZM60.4273 64H62.0909V60H60.4273V64ZM62.0909 64C64.3038 64 66 62.1039 66 60.0363H62C62 60.0137 62.0048 60.0028 62.0043 60.004C62.0033 60.0063 61.9994 60.0133 61.9929 60.0201C61.9865 60.0268 61.9867 60.0237 62.0008 60.0173C62.017 60.0099 62.0486 60 62.0909 60V64ZM66 60.0363V45.0081H62V60.0363H66ZM65.8889 44.3509L61.9889 33.1412L58.2111 34.4556L62.1111 45.6653L65.8889 44.3509ZM37.8455 36.7257H57.4545V32.7257H37.8455V36.7257ZM55.5629 35.3751L58.372 43.5574L62.1553 42.2586L59.3462 34.0763L55.5629 35.3751ZM60.2636 40.908H35.0364V44.908H60.2636V40.908ZM36.928 43.5574L39.7371 35.3751L35.9538 34.0763L33.1447 42.2586L36.928 43.5574ZM36.7273 49.0903C36.332 49.0903 36 48.7585 36 48.3629H32C32 50.9674 34.1226 53.0903 36.7273 53.0903V49.0903ZM36 48.3629C36 47.9672 36.332 47.6354 36.7273 47.6354V43.6354C34.1226 43.6354 32 45.7583 32 48.3629H36ZM36.7273 47.6354C37.1226 47.6354 37.4545 47.9672 37.4545 48.3629H41.4545C41.4545 45.7583 39.332 43.6354 36.7273 43.6354V47.6354ZM37.4545 48.3629C37.4545 48.7585 37.1226 49.0903 36.7273 49.0903V53.0903C39.332 53.0903 41.4545 50.9674 41.4545 48.3629H37.4545ZM58.5455 49.0903C58.1501 49.0903 57.8182 48.7585 57.8182 48.3629H53.8182C53.8182 50.9674 55.9408 53.0903 58.5455 53.0903V49.0903ZM57.8182 48.3629C57.8182 47.9672 58.1501 47.6354 58.5455 47.6354V43.6354C55.9408 43.6354 53.8182 45.7583 53.8182 48.3629H57.8182ZM58.5455 47.6354C58.9408 47.6354 59.2727 47.9672 59.2727 48.3629H63.2727C63.2727 45.7583 61.1501 43.6354 58.5455 43.6354V47.6354ZM59.2727 48.3629C59.2727 48.7585 58.9408 49.0903 58.5455 49.0903V53.0903C61.1501 53.0903 63.2727 50.9674 63.2727 48.3629H59.2727ZM17.455 39.1714L18.3823 45.9081L22.345 45.3627L21.4177 38.626L17.455 39.1714ZM18.9427 44.228L16.0791 47.1191L18.9209 49.934L21.7846 47.0429L18.9427 44.228ZM19.2499 47.5581L14.4499 38.8848L10.9501 40.8217L15.7501 49.4949L19.2499 47.5581ZM13.6704 38.1045L4.9704 33.2769L3.0296 36.7745L11.7296 41.6021L13.6704 38.1045ZM5.42741 36.4266L8.31832 33.481L5.4635 30.6792L2.57259 33.6248L5.42741 36.4266ZM6.59808 34.0586L13.4163 35.0677L14.0019 31.1108L7.18374 30.1017L6.59808 34.0586ZM15.1233 34.5034L25.6779 23.9483L22.8494 21.1199L12.2948 31.6751L15.1233 34.5034ZM25.1951 20.7643L4.93144 10.1L3.06856 13.6397L23.3322 24.304L25.1951 20.7643ZM5.40925 13.289L9.28198 9.44337L6.46348 6.60504L2.59075 10.4507L5.40925 13.289ZM7.42314 9.97302L32.4868 15.7552L33.386 11.8575L8.32232 6.07539L7.42314 9.97302ZM34.3506 15.2205L44.9597 4.61083L42.1312 1.78249L31.5221 12.3922L34.3506 15.2205ZM44.9902 4.57962C45.73 3.80679 47.1427 3.80679 47.8825 4.57962L50.7721 1.81369C48.4573 -0.604565 44.4155 -0.604565 42.1007 1.81369L44.9902 4.57962ZM47.913 4.61083C48.7621 5.45999 48.7076 6.80943 47.9504 7.52823L50.7042 10.4294C53.1651 8.09346 53.1106 4.15169 50.7415 1.78249L47.913 4.61083ZM47.913 7.56463L37.3039 18.1743L40.1324 21.0027L50.7415 10.393L47.913 7.56463ZM36.7695 20.0386L39.0059 29.721L42.9032 28.8208L40.6669 19.1384L36.7695 20.0386ZM40.9545 27.2709H37.8455V31.2709H40.9545V27.2709ZM37.8455 27.2709C34.6808 27.2709 31.8464 29.1167 30.7534 32.1697L34.5193 33.5179C35.0082 32.1525 36.2646 31.2709 37.8455 31.2709V27.2709ZM30.8475 31.9494L30.7657 32.1131L34.3434 33.9018L34.4252 33.7382L30.8475 31.9494ZM34.3268 32.0806L31.845 27.3349L28.3004 29.1885L30.7823 33.9343L34.3268 32.0806ZM28.6585 26.8475L18.0221 37.4845L20.8506 40.3129L31.487 29.6759L28.6585 26.8475Z" fill="white" mask="url(#path-1-outside-1_407_16)"/>
</svg>
