<svg width="257" height="68" viewBox="0 0 257 68" fill="none" xmlns="http://www.w3.org/2000/svg">
<path d="M97.3467 13.4147C97.3467 13.5899 97.3082 13.765 97.231 13.9401C97.1732 14.1152 97.1057 14.2903 97.0286 14.4654C96.6814 15.2826 96.3054 16.0804 95.9005 16.8587C95.5148 17.637 95.1677 18.4347 94.8591 19.2519C94.3385 20.6139 93.8853 22.0829 93.4996 23.659C93.1332 25.235 92.8054 26.8889 92.5161 28.6206C92.2462 30.3523 92.0244 32.1423 91.8509 33.9908C91.6773 35.8392 91.552 37.7266 91.4748 39.6528C92.5161 39.8669 93.4707 40.1879 94.3385 40.616C95.2062 41.044 96.0451 41.5694 96.855 42.192C98.3977 41.2192 99.8247 40.0225 101.136 38.6022C102.447 37.1623 103.643 35.596 104.723 33.9032C105.822 32.2104 106.805 30.4398 107.673 28.5914C108.541 26.743 109.303 24.9237 109.958 23.1336C110.633 21.3436 111.202 19.6313 111.665 17.9969C112.128 16.3625 112.504 14.913 112.793 13.6482C112.87 13.2202 113.053 12.7921 113.343 12.3641C113.632 11.936 113.969 11.5469 114.355 11.1966C114.76 10.8464 115.194 10.5643 115.657 10.3502C116.12 10.1167 116.573 10 117.016 10C117.46 10 117.778 10.1362 117.971 10.4086C118.164 10.6615 118.26 11.002 118.26 11.4301V11.8387C118.048 13.6482 117.653 15.5453 117.074 17.53C116.496 19.5146 115.763 21.5187 114.876 23.5422C114.008 25.5463 112.976 27.5212 111.781 29.467C110.604 31.4127 109.293 33.2417 107.847 34.9539C106.42 36.6467 104.867 38.1935 103.19 39.5945C101.512 40.9954 99.7379 42.1531 97.8674 43.0676C98.2531 43.3984 98.6291 43.7389 98.9955 44.0891C99.3812 44.4393 99.7765 44.809 100.181 45.1982C101.898 46.8326 103.575 48.4962 105.215 50.1889C106.873 51.8817 108.57 53.5259 110.305 55.1214C112.041 56.7168 113.854 58.2053 115.743 59.5868C117.633 60.9877 119.677 62.2038 121.876 63.235C122.454 63.5074 123.1 63.7701 123.814 64.023C124.527 64.2954 125.26 64.5289 126.012 64.7235C126.764 64.9181 127.507 65.0737 128.239 65.1905C128.991 65.3072 129.686 65.3656 130.322 65.3656C130.65 65.3656 130.968 65.3461 131.277 65.3072C131.585 65.2878 131.903 65.2294 132.231 65.1321L132.347 65.745C131.518 66.212 130.631 66.533 129.686 66.7081C128.741 66.9027 127.777 67 126.793 67C126.041 67 125.241 66.9416 124.392 66.8249C123.544 66.7276 122.686 66.5719 121.818 66.3579C120.95 66.1633 120.102 65.9201 119.272 65.6283C118.463 65.3559 117.73 65.0543 117.074 64.7235C115.107 63.7312 113.169 62.554 111.26 61.192C109.37 59.8495 107.548 58.3902 105.793 56.8141C104.038 55.2381 102.37 53.5842 100.789 51.8525C99.2269 50.1208 97.7999 48.36 96.5079 46.5699C96.2379 46.2002 95.9679 45.8208 95.698 45.4316C95.4473 45.0425 95.187 44.6534 94.917 44.2642C93.76 44.6339 92.5547 44.8966 91.3013 45.0522C91.2627 48.0681 91.3013 51.0256 91.417 53.9247C91.5327 56.8239 91.6869 59.5965 91.8798 62.2427L91.2434 62.4762C90.7613 61.2115 90.3371 59.8787 89.9707 58.4777C89.6236 57.0768 89.3247 55.637 89.074 54.1582C88.8233 52.6795 88.6112 51.191 88.4376 49.6928C88.2834 48.1751 88.158 46.6672 88.0616 45.169C87.6181 45.1301 87.1649 45.0522 86.7021 44.9355C86.2586 44.7993 85.844 44.6242 85.4583 44.4101C85.0919 44.1767 84.7833 43.8848 84.5327 43.5346C84.3012 43.1843 84.1855 42.766 84.1855 42.2796C84.1855 41.8126 84.2916 41.4137 84.5037 41.083C84.7351 40.7327 85.0244 40.4409 85.3715 40.2074C85.7379 39.9739 86.1332 39.7988 86.5575 39.682C87.001 39.5458 87.4349 39.4583 87.8591 39.4194V37.7849C87.8591 36.8315 87.8688 35.6349 87.888 34.1951C87.9073 32.7552 87.9652 31.2084 88.0616 29.5545C88.1773 27.9007 88.3508 26.2176 88.5823 24.5054C88.8329 22.7931 89.1704 21.1879 89.5947 19.6897C90.0382 18.1915 90.5878 16.8781 91.2434 15.7496C91.9184 14.6211 92.7476 13.8039 93.731 13.298C94.1167 13.084 94.512 12.8894 94.917 12.7143C95.3412 12.5392 95.7751 12.4516 96.2186 12.4516C96.5079 12.4516 96.7682 12.5197 96.9996 12.6559C97.231 12.7921 97.3467 13.0451 97.3467 13.4147ZM84.7062 42.4547C84.7062 42.8049 84.8123 43.1065 85.0244 43.3594C85.2365 43.5929 85.5065 43.7875 85.8343 43.9432C86.1814 44.0988 86.5478 44.2253 86.9335 44.3226C87.3192 44.4004 87.6856 44.4588 88.0327 44.4977C87.9555 42.98 87.8977 41.5013 87.8591 40.0614C87.4734 40.1004 87.0878 40.1587 86.7021 40.2366C86.3357 40.3144 85.9982 40.4506 85.6897 40.6452C85.4004 40.8203 85.1594 41.0538 84.9665 41.3456C84.793 41.6375 84.7062 42.0072 84.7062 42.4547ZM91.3302 44.3518C92.3908 44.1767 93.4128 43.8848 94.3963 43.4762C93.9721 42.873 93.5189 42.3282 93.0368 41.8418C92.574 41.3359 92.0341 40.9176 91.417 40.5868C91.3977 41.2094 91.3784 41.8418 91.3591 42.4839C91.3398 43.1065 91.3302 43.7291 91.3302 44.3518Z" fill="#FAFF00"/>
<path d="M131.45 48.321C130.949 49.0604 130.341 49.7512 129.628 50.3932C128.934 51.0353 128.162 51.5899 127.314 52.0568C126.485 52.5238 125.607 52.8935 124.682 53.1659C123.775 53.4383 122.859 53.5745 121.934 53.5745C120.622 53.5745 119.398 53.3994 118.26 53.0492C117.122 52.7184 116.129 52.2028 115.281 51.5023C114.432 50.8018 113.767 49.9263 113.285 48.8756C112.803 47.8054 112.562 46.5602 112.562 45.1398C112.562 43.7389 112.812 42.4352 113.314 41.2289C113.834 40.0031 114.538 38.9427 115.425 38.0476C116.332 37.1331 117.392 36.4132 118.607 35.8879C119.822 35.3625 121.124 35.0998 122.512 35.0998C123.168 35.0998 123.775 35.1971 124.334 35.3917C124.913 35.5668 125.414 35.8392 125.839 36.2089C126.263 36.5591 126.591 36.9969 126.822 37.5223C127.073 38.0476 127.198 38.6508 127.198 39.3318C127.198 40.149 127.034 40.8689 126.706 41.4916C126.379 42.1142 125.945 42.659 125.405 43.126C124.865 43.5929 124.248 43.9821 123.553 44.2934C122.878 44.6047 122.165 44.8577 121.413 45.0522C120.68 45.2468 119.947 45.3927 119.215 45.49C118.501 45.5678 117.845 45.6068 117.248 45.6068H116.553C116.804 47.3774 117.498 48.7296 118.636 49.6636C119.774 50.5975 121.345 51.0645 123.351 51.0645C124.778 51.0645 126.166 50.8116 127.516 50.3057C128.885 49.7998 130.12 49.0993 131.219 48.2043L131.45 48.321ZM116.467 44.7312H117.19C117.884 44.7312 118.597 44.6242 119.33 44.4101C120.063 44.1767 120.719 43.8459 121.297 43.4178C121.895 42.9703 122.387 42.4255 122.772 41.7834C123.158 41.1413 123.351 40.4117 123.351 39.5945C123.351 38.7967 123.177 38.1352 122.83 37.6098C122.502 37.0845 121.924 36.8218 121.095 36.8218C120.246 36.8218 119.523 37.0845 118.925 37.6098C118.347 38.1157 117.874 38.7481 117.508 39.5069C117.142 40.2463 116.872 41.0343 116.698 41.871C116.544 42.6882 116.467 43.4178 116.467 44.0599V44.7312Z" fill="#FAFF00"/>
<path d="M155.025 48.321C154.658 49.0215 154.263 49.6928 153.839 50.3349C153.434 50.977 152.971 51.5412 152.45 52.0277C151.93 52.5141 151.341 52.9032 150.686 53.1951C150.03 53.4869 149.278 53.6329 148.43 53.6329C147.465 53.6329 146.636 53.3897 145.942 52.9032C145.248 52.4363 144.65 51.8136 144.149 51.0353C143.666 50.2376 143.271 49.3328 142.963 48.321C142.673 47.3093 142.432 46.278 142.239 45.2273C142.047 44.1767 141.902 43.1454 141.806 42.1336C141.709 41.1024 141.622 40.1782 141.545 39.361C141.179 39.6528 140.735 40.2171 140.215 41.0538C139.694 41.871 139.164 42.8341 138.624 43.9432C138.084 45.0522 137.563 46.2586 137.062 47.5622C136.58 48.8658 136.184 50.15 135.876 51.4147C135.818 51.6871 135.722 51.9693 135.587 52.2611C135.471 52.553 135.317 52.8157 135.124 53.0492C134.95 53.3021 134.738 53.5064 134.487 53.6621C134.237 53.8372 133.957 53.9247 133.648 53.9247C133.147 53.9247 132.781 53.7496 132.549 53.3994C132.337 53.0492 132.183 52.6503 132.087 52.2028C131.527 49.7317 131.132 47.3676 130.901 45.1106C130.688 42.8536 130.582 40.5965 130.582 38.3395C130.582 37.7947 130.669 37.3277 130.843 36.9386C131.036 36.53 131.286 36.1992 131.595 35.9462C131.903 35.6738 132.27 35.4793 132.694 35.3625C133.118 35.2263 133.562 35.1582 134.025 35.1582C134.082 35.1582 134.169 35.1582 134.285 35.1582C134.42 35.1582 134.545 35.1777 134.661 35.2166C134.777 35.236 134.873 35.275 134.95 35.3333C135.027 35.3917 135.056 35.4695 135.037 35.5668C134.536 38.1157 134.295 40.7133 134.314 43.3594C134.333 45.9862 134.468 48.5156 134.719 50.9478C134.931 49.9749 135.239 48.8756 135.644 47.6498C136.069 46.4045 136.551 45.1592 137.091 43.914C137.65 42.6493 138.248 41.4526 138.884 40.3241C139.54 39.1761 140.205 38.213 140.88 37.4347C141.208 37.065 141.536 36.7537 141.863 36.5008C142.211 36.2284 142.635 36.0922 143.136 36.0922C143.425 36.0922 143.666 36.1505 143.859 36.2673C144.052 36.384 144.206 36.53 144.322 36.7051C144.457 36.8802 144.553 37.0845 144.611 37.318C144.688 37.532 144.746 37.746 144.785 37.9601C144.881 38.5243 144.978 39.254 145.074 40.149C145.171 41.044 145.286 41.9974 145.421 43.0092C145.576 44.021 145.759 45.0425 145.971 46.0737C146.183 47.0855 146.453 48.0097 146.781 48.8464C147.109 49.6636 147.504 50.3349 147.967 50.8602C148.43 51.3856 148.979 51.6482 149.615 51.6482C150.136 51.6482 150.638 51.5509 151.12 51.3564C151.621 51.1423 152.093 50.8797 152.537 50.5684C152.981 50.2376 153.395 49.8679 153.781 49.4593C154.166 49.0312 154.514 48.6129 154.822 48.2043L155.025 48.321Z" fill="#FAFF00"/>
<path d="M167.26 37.2012C167.26 37.4153 167.183 37.6098 167.029 37.7849C166.874 37.9406 166.691 38.0184 166.479 38.0184C166.306 38.0184 166.122 37.9698 165.93 37.8725C165.737 37.7558 165.515 37.6293 165.264 37.4931C165.033 37.3569 164.753 37.2401 164.425 37.1429C164.117 37.0261 163.76 36.9677 163.355 36.9677C162.41 36.9677 161.562 37.2693 160.81 37.8725C160.077 38.4562 159.45 39.1859 158.93 40.0614C158.428 40.937 158.043 41.871 157.773 42.8633C157.503 43.8556 157.368 44.7506 157.368 45.5484C157.368 46.1126 157.416 46.6672 157.512 47.212C157.609 47.7373 157.773 48.2238 158.004 48.6713C158.255 49.0993 158.592 49.4496 159.016 49.722C159.441 49.9749 159.981 50.1014 160.636 50.1014C161.33 50.1014 161.996 49.9749 162.632 49.722C163.268 49.4496 163.866 49.0993 164.425 48.6713C164.445 48.0486 164.541 47.3968 164.715 46.7158C164.908 46.0154 165.149 45.3344 165.438 44.6728C165.727 43.9918 166.055 43.3497 166.421 42.7465C166.807 42.1434 167.202 41.6083 167.607 41.1413L167.983 41.3748C167.771 42.0364 167.617 42.7174 167.52 43.4178C167.424 44.1183 167.376 44.809 167.376 45.49C167.376 46.1905 167.434 46.852 167.549 47.4747C167.665 48.0973 167.868 48.6421 168.157 49.1091C168.446 49.5566 168.841 49.9165 169.343 50.1889C169.844 50.4419 170.49 50.5684 171.281 50.5684C172.245 50.5684 173.132 50.3446 173.942 49.8971C174.752 49.4496 175.465 48.8853 176.082 48.2043L176.314 48.321C175.967 49.002 175.514 49.6539 174.954 50.2765C174.395 50.8991 173.768 51.4634 173.074 51.9693C172.399 52.4557 171.676 52.8449 170.905 53.1367C170.133 53.4286 169.372 53.5745 168.62 53.5745C167.559 53.5745 166.691 53.2632 166.016 52.6406C165.341 52.0374 164.879 51.2688 164.628 50.3349C163.818 51.1521 162.912 51.8428 161.909 52.4071C160.925 52.9519 159.884 53.2243 158.785 53.2243C157.975 53.2243 157.252 53.0686 156.616 52.7573C155.998 52.4654 155.478 52.0666 155.054 51.5607C154.629 51.0548 154.301 50.4613 154.07 49.7803C153.858 49.0799 153.752 48.3502 153.752 47.5914C153.752 46.7158 153.887 45.8208 154.157 44.9063C154.446 43.9724 154.832 43.0579 155.314 42.1628C155.815 41.2678 156.403 40.4214 157.078 39.6237C157.753 38.8259 158.486 38.1254 159.277 37.5223C160.087 36.9191 160.935 36.4424 161.822 36.0922C162.709 35.7419 163.616 35.5668 164.541 35.5668C164.753 35.5668 165.014 35.596 165.322 35.6544C165.631 35.6933 165.93 35.7711 166.219 35.8879C166.508 36.0046 166.749 36.17 166.942 36.384C167.154 36.5981 167.26 36.8705 167.26 37.2012Z" fill="#FAFF00"/>
<path d="M197.979 48.0292C197.594 48.788 197.15 49.5177 196.649 50.2181C196.147 50.9186 195.569 51.5412 194.913 52.086C194.257 52.6308 193.525 53.0589 192.715 53.3702C191.905 53.701 190.989 53.8664 189.967 53.8664C188.116 53.8664 186.592 53.4383 185.397 52.5822C184.22 51.7261 183.227 50.5294 182.417 48.9923C182.186 49.0896 181.954 49.1772 181.723 49.255C181.511 49.3134 181.299 49.3815 181.087 49.4593C181.048 49.7901 181.01 50.0917 180.971 50.3641C180.932 50.6365 180.894 50.8894 180.855 51.1229C180.817 51.3758 180.768 51.6482 180.711 51.9401C180.653 52.232 180.556 52.5044 180.421 52.7573C180.286 53.0102 180.103 53.2145 179.872 53.3702C179.64 53.5453 179.322 53.6329 178.917 53.6329C178.339 53.6329 177.934 53.448 177.702 53.0783C177.471 52.7281 177.288 52.339 177.153 51.9109C176.863 50.977 176.594 49.8484 176.343 48.5253C176.111 47.2023 175.909 45.8402 175.735 44.4393C175.562 43.0189 175.427 41.618 175.33 40.2366C175.234 38.8551 175.186 37.6293 175.186 36.5591C175.186 35.275 175.224 33.9227 175.302 32.5023C175.379 31.0625 175.514 29.6129 175.706 28.1536C175.899 26.6943 176.16 25.2545 176.487 23.8341C176.835 22.3943 177.268 21.0225 177.789 19.7189C178.31 18.4153 178.927 17.2089 179.64 16.0998C180.373 14.9713 181.231 13.9985 182.215 13.1813C182.658 12.8116 183.16 12.4905 183.719 12.2181C184.297 11.9457 184.866 11.8095 185.425 11.8095C185.657 11.8095 185.917 11.8679 186.206 11.9846C186.515 12.0819 186.669 12.2765 186.669 12.5684C186.669 12.724 186.592 12.9089 186.438 13.1229C183.68 16.956 181.684 21.0323 180.45 25.3518C179.216 29.6518 178.599 34.2145 178.599 39.0399C178.599 41.0246 178.686 42.9411 178.859 44.7896C179.052 46.6185 179.303 48.5351 179.611 50.5392C179.689 49.5274 179.795 48.4475 179.93 47.2995C180.084 46.1321 180.286 44.9841 180.537 43.8556C180.807 42.7271 181.144 41.6472 181.549 40.616C181.954 39.5653 182.456 38.6411 183.054 37.8433C183.651 37.0456 184.346 36.4132 185.136 35.9462C185.946 35.4598 186.891 35.2166 187.971 35.2166C189.109 35.2166 190.054 35.5571 190.806 36.2381C191.558 36.8996 191.934 37.8141 191.934 38.9816C191.934 39.6431 191.828 40.2949 191.616 40.937C191.403 41.5791 191.114 42.192 190.748 42.7757C190.401 43.34 189.996 43.8751 189.533 44.381C189.089 44.8868 188.627 45.3246 188.145 45.6943C187.45 46.2391 186.689 46.7645 185.859 47.2704C186.168 47.8735 186.515 48.4475 186.901 48.9923C187.286 49.5177 187.711 49.9846 188.173 50.3932C188.636 50.7824 189.147 51.0937 189.707 51.3272C190.285 51.5607 190.921 51.6774 191.616 51.6774C192.233 51.6774 192.83 51.5801 193.409 51.3856C194.007 51.1715 194.566 50.8991 195.087 50.5684C195.607 50.2181 196.089 49.8193 196.533 49.3717C196.996 48.9048 197.41 48.4183 197.777 47.9124L197.979 48.0292ZM186.554 38.894C185.589 38.894 184.799 39.2053 184.182 39.828C183.565 40.4311 183.054 41.1997 182.649 42.1336C182.263 43.0481 181.964 44.0599 181.752 45.169C181.54 46.278 181.366 47.3287 181.231 48.321C182.157 47.9514 183.034 47.5038 183.864 46.9785C184.712 46.4337 185.445 45.8402 186.062 45.1982C186.679 44.5561 187.171 43.8751 187.537 43.1551C187.903 42.4158 188.087 41.6472 188.087 40.8495C188.087 40.3436 187.952 39.8961 187.682 39.5069C187.431 39.0983 187.055 38.894 186.554 38.894Z" fill="#FAFF00"/>
<path d="M210.186 37.2012C210.186 37.4153 210.109 37.6098 209.954 37.7849C209.8 37.9406 209.617 38.0184 209.405 38.0184C209.231 38.0184 209.048 37.9698 208.855 37.8725C208.662 37.7558 208.441 37.6293 208.19 37.4931C207.959 37.3569 207.679 37.2401 207.351 37.1429C207.043 37.0261 206.686 36.9677 206.281 36.9677C205.336 36.9677 204.488 37.2693 203.735 37.8725C203.003 38.4562 202.376 39.1859 201.855 40.0614C201.354 40.937 200.968 41.871 200.698 42.8633C200.428 43.8556 200.293 44.7506 200.293 45.5484C200.293 46.1126 200.342 46.6672 200.438 47.212C200.534 47.7373 200.698 48.2238 200.93 48.6713C201.18 49.0993 201.518 49.4496 201.942 49.722C202.366 49.9749 202.906 50.1014 203.562 50.1014C204.256 50.1014 204.921 49.9749 205.558 49.722C206.194 49.4496 206.792 49.0993 207.351 48.6713C207.37 48.0486 207.467 47.3968 207.64 46.7158C207.833 46.0154 208.074 45.3344 208.364 44.6728C208.653 43.9918 208.981 43.3497 209.347 42.7465C209.733 42.1434 210.128 41.6083 210.533 41.1413L210.909 41.3748C210.697 42.0364 210.543 42.7174 210.446 43.4178C210.35 44.1183 210.302 44.809 210.302 45.49C210.302 46.1905 210.359 46.852 210.475 47.4747C210.591 48.0973 210.793 48.6421 211.083 49.1091C211.372 49.5566 211.767 49.9165 212.269 50.1889C212.77 50.4419 213.416 50.5684 214.207 50.5684C215.171 50.5684 216.058 50.3446 216.868 49.8971C217.678 49.4496 218.391 48.8853 219.008 48.2043L219.24 48.321C218.893 49.002 218.439 49.6539 217.88 50.2765C217.321 50.8991 216.694 51.4634 216 51.9693C215.325 52.4557 214.602 52.8449 213.831 53.1367C213.059 53.4286 212.297 53.5745 211.545 53.5745C210.485 53.5745 209.617 53.2632 208.942 52.6406C208.267 52.0374 207.804 51.2688 207.554 50.3349C206.744 51.1521 205.837 51.8428 204.835 52.4071C203.851 52.9519 202.81 53.2243 201.711 53.2243C200.901 53.2243 200.178 53.0686 199.541 52.7573C198.924 52.4654 198.403 52.0666 197.979 51.5607C197.555 51.0548 197.227 50.4613 196.996 49.7803C196.784 49.0799 196.678 48.3502 196.678 47.5914C196.678 46.7158 196.813 45.8208 197.083 44.9063C197.372 43.9724 197.757 43.0579 198.24 42.1628C198.741 41.2678 199.329 40.4214 200.004 39.6237C200.679 38.8259 201.412 38.1254 202.202 37.5223C203.012 36.9191 203.861 36.4424 204.748 36.0922C205.635 35.7419 206.541 35.5668 207.467 35.5668C207.679 35.5668 207.939 35.596 208.248 35.6544C208.556 35.6933 208.855 35.7711 209.145 35.8879C209.434 36.0046 209.675 36.17 209.868 36.384C210.08 36.5981 210.186 36.8705 210.186 37.2012Z" fill="#FAFF00"/>
<path d="M240.095 48.321C239.748 49.0993 239.304 49.7998 238.764 50.4224C238.244 51.0451 237.675 51.5801 237.058 52.0277C236.441 52.4557 235.804 52.7865 235.149 53.02C234.493 53.2729 233.866 53.3994 233.269 53.3994C232.15 53.3994 231.205 53.2048 230.434 52.8157C229.663 52.4265 229.036 51.9012 228.554 51.2396C228.072 50.5781 227.725 49.7998 227.512 48.9048C227.3 48.0097 227.194 47.0563 227.194 46.0445C227.194 45.2663 227.252 44.4588 227.368 43.6221C227.483 42.7855 227.647 41.978 227.86 41.1997C227.898 41.0829 227.937 40.9468 227.975 40.7911C228.014 40.616 228.033 40.47 228.033 40.3533C228.033 40.256 227.975 40.1782 227.86 40.1198C227.532 40.0031 227.185 39.8961 226.818 39.7988C226.452 39.682 226.085 39.5556 225.719 39.4194C225.372 39.2832 225.034 39.1275 224.707 38.9524C224.398 38.7773 224.128 38.5535 223.897 38.2811C223.877 39.4485 223.685 40.6354 223.318 41.8418C222.952 43.0287 222.46 44.1767 221.843 45.2857C221.245 46.3753 220.541 47.3968 219.731 48.3502C218.921 49.3036 218.063 50.1306 217.157 50.831L216.868 50.5392C217.427 49.9165 217.938 49.1772 218.401 48.321C218.864 47.4649 219.259 46.5699 219.587 45.6359C219.915 44.702 220.165 43.7583 220.339 42.8049C220.532 41.8515 220.628 40.9565 220.628 40.1198C220.628 39.6918 220.59 39.2929 220.512 38.9232C220.435 38.5341 220.348 38.1644 220.252 37.8141C220.175 37.4639 220.098 37.1331 220.021 36.8218C219.944 36.491 219.905 36.1603 219.905 35.8295C219.905 35.2847 220.078 34.8566 220.426 34.5453C220.773 34.234 221.216 34.0783 221.756 34.0783C222.045 34.0783 222.267 34.1659 222.421 34.341C222.576 34.4967 222.711 34.6912 222.826 34.9247C222.942 35.1582 223.077 35.4014 223.231 35.6544C223.386 35.9073 223.607 36.1214 223.897 36.2965C224.263 36.5105 224.726 36.6662 225.285 36.7634C225.844 36.8607 226.433 36.9483 227.05 37.0261C227.667 37.1039 228.284 37.1818 228.901 37.2596C229.518 37.3374 230.068 37.4736 230.55 37.6682C231.051 37.8433 231.456 38.0963 231.764 38.427C232.073 38.7384 232.227 39.1664 232.227 39.7112C232.227 39.9836 232.198 40.256 232.141 40.5284C232.102 40.7814 232.034 41.0246 231.938 41.2581C231.707 42.0753 231.504 42.9119 231.331 43.768C231.176 44.6047 231.099 45.4414 231.099 46.278C231.099 46.998 231.147 47.6595 231.244 48.2627C231.36 48.8464 231.562 49.3523 231.851 49.7803C232.141 50.2084 232.526 50.5392 233.008 50.7727C233.49 51.0061 234.107 51.1229 234.86 51.1229C235.939 51.1229 236.884 50.8602 237.694 50.3349C238.504 49.7901 239.218 49.0799 239.835 48.2043L240.095 48.321Z" fill="#FAFF00"/>
<path d="M256.814 48.321C256.313 49.0604 255.705 49.7512 254.992 50.3932C254.298 51.0353 253.526 51.5899 252.678 52.0568C251.849 52.5238 250.971 52.8935 250.046 53.1659C249.139 53.4383 248.223 53.5745 247.298 53.5745C245.986 53.5745 244.762 53.3994 243.624 53.0492C242.486 52.7184 241.493 52.2028 240.645 51.5023C239.796 50.8018 239.131 49.9263 238.649 48.8756C238.167 47.8054 237.926 46.5602 237.926 45.1398C237.926 43.7389 238.176 42.4352 238.678 41.2289C239.198 40.0031 239.902 38.9427 240.789 38.0476C241.696 37.1331 242.756 36.4132 243.971 35.8879C245.186 35.3625 246.488 35.0998 247.876 35.0998C248.532 35.0998 249.139 35.1971 249.698 35.3917C250.277 35.5668 250.778 35.8392 251.203 36.2089C251.627 36.5591 251.955 36.9969 252.186 37.5223C252.437 38.0476 252.562 38.6508 252.562 39.3318C252.562 40.149 252.398 40.8689 252.07 41.4916C251.742 42.1142 251.309 42.659 250.769 43.126C250.229 43.5929 249.612 43.9821 248.917 44.2934C248.242 44.6047 247.529 44.8577 246.777 45.0522C246.044 45.2468 245.311 45.3927 244.579 45.49C243.865 45.5678 243.209 45.6068 242.612 45.6068H241.917C242.168 47.3774 242.862 48.7296 244 49.6636C245.138 50.5975 246.709 51.0645 248.715 51.0645C250.142 51.0645 251.53 50.8116 252.88 50.3057C254.249 49.7998 255.484 49.0993 256.583 48.2043L256.814 48.321ZM241.831 44.7312H242.554C243.248 44.7312 243.961 44.6242 244.694 44.4101C245.427 44.1767 246.083 43.8459 246.661 43.4178C247.259 42.9703 247.751 42.4255 248.136 41.7834C248.522 41.1413 248.715 40.4117 248.715 39.5945C248.715 38.7967 248.541 38.1352 248.194 37.6098C247.866 37.0845 247.288 36.8218 246.459 36.8218C245.61 36.8218 244.887 37.0845 244.289 37.6098C243.711 38.1157 243.238 38.7481 242.872 39.5069C242.506 40.2463 242.236 41.0343 242.062 41.871C241.908 42.6882 241.831 43.4178 241.831 44.0599V44.7312Z" fill="#FAFF00"/>
<path d="M35.9929 1.50053C35.8368 1.882 35.9539 1.99645 36.305 1.84386C36.617 1.72941 36.7731 1.50053 36.656 1.30979C36.383 0.85202 36.2269 0.890167 35.9929 1.50053Z" stroke="#008055"/>
<path d="M45.0824 15.4625C44.6143 15.7677 44.6533 15.844 45.3945 15.844C45.8626 15.844 46.2528 15.6533 46.2528 15.4625C46.2528 14.9666 45.8236 14.9666 45.0824 15.4625Z" stroke="#008055"/>
<path d="M24.1725 48.1932C23.9385 48.3458 23.8604 48.8035 24.0165 49.2232C24.2506 49.8717 24.2896 49.8335 24.4846 48.918C24.6016 48.3458 24.6797 47.888 24.6407 47.888C24.6407 47.888 24.4066 48.0406 24.1725 48.1932Z" stroke="#008055"/>
<path d="M28.9319 47.0106C28.6978 47.5447 28.7368 47.5828 29.1269 47.2395C29.4 46.9724 29.517 46.6673 29.4 46.5528C29.283 46.4384 29.0489 46.6291 28.9319 47.0106Z" stroke="#008055"/>
<path d="M42.7418 52.275C42.7418 52.5801 42.8978 52.8472 43.1319 52.8472C43.3269 52.8472 43.4049 52.5801 43.2879 52.275C43.1319 51.9698 42.9758 51.7027 42.8978 51.7027C42.8198 51.7027 42.7418 51.9698 42.7418 52.275Z" stroke="#008055"/>
<path d="M30.0632 5.54417C30.1802 5.73491 30.3753 5.92565 30.4923 5.92565C30.5703 5.92565 30.6484 5.73491 30.6484 5.54417C30.6484 5.31529 30.4533 5.1627 30.2192 5.1627C30.0242 5.1627 29.9462 5.31529 30.0632 5.54417Z" stroke="#008055"/>
<path d="M20.8176 6.80305C21.2467 7.68044 21.2857 8.02377 20.9346 8.13821C20.5835 8.25265 20.5835 8.40524 20.9346 8.82487C21.3247 9.28264 21.2857 9.32079 20.7786 9.13005C20.3104 8.97746 20.2324 9.0919 20.3885 9.74041C20.5445 10.3126 20.7005 10.4271 20.8956 10.1219C21.0516 9.85485 21.4027 9.77856 21.6368 9.893C21.8709 10.0456 22.0659 10.0456 22.0269 9.85485C21.9099 9.13005 22.1049 8.55783 22.417 8.74857C22.6121 8.86302 22.9632 8.71042 23.1973 8.44339C23.5874 7.98562 23.5484 7.94747 22.9242 8.06192C22.5341 8.17636 22.0269 8.02377 21.7929 7.75674C21.3637 7.26082 21.2857 7.07008 21.2857 6.34527C21.2857 6.15454 21.0516 5.92565 20.7396 5.81121C20.3104 5.65862 20.3104 5.84936 20.8176 6.80305Z" stroke="#008055"/>
<path d="M28.9319 6.04009C29.0489 6.42157 29.283 6.6123 29.4 6.49786C29.517 6.38342 29.4 6.07824 29.1269 5.81121C28.7368 5.46788 28.6978 5.50602 28.9319 6.04009Z" stroke="#008055"/>
<path d="M38.6846 6.15454C38.3335 6.45972 37.9044 6.61231 37.6703 6.49786C37.4753 6.38342 37.2802 6.49786 37.2802 6.80304C37.2802 7.566 38.1775 7.83303 39.5038 7.45155C40.206 7.26082 40.3231 7.10823 39.8549 7.10823C39.3478 7.07008 39.1918 6.87934 39.3478 6.30713C39.5819 5.39158 39.4648 5.35344 38.6846 6.15454Z" stroke="#008055"/>
<path d="M42.5467 6.84119C41.9225 7.33711 41.4544 7.83303 41.5714 7.94747C41.6885 8.06191 42.2736 7.64229 42.8978 7.03193C44.3022 5.69676 44.1462 5.62047 42.5467 6.84119Z" stroke="#008055"/>
<path d="M16.2143 8.36709C16.2143 8.44339 16.4874 8.71042 16.7995 8.97745C17.1506 9.24449 17.3846 9.28264 17.3846 9.05375C17.3846 8.86301 17.1115 8.59598 16.7995 8.44339C16.4874 8.32895 16.2143 8.2908 16.2143 8.36709Z" stroke="#008055"/>
<path d="M46.0967 8.86301C45.8626 9.39708 45.9017 9.43523 46.2918 9.0919C46.5648 8.82486 46.6819 8.51968 46.5648 8.40524C46.4478 8.2908 46.2137 8.48154 46.0967 8.86301Z" stroke="#008055"/>
<path d="M50.544 12.3726C50.544 13.0211 50.661 13.5933 50.856 13.6696C51.0121 13.7841 51.1291 13.2881 51.1291 12.5633C51.1291 11.8385 51.0121 11.2663 50.856 11.2663C50.661 11.2663 50.544 11.7622 50.544 12.3726Z" stroke="#008055"/>
<path d="M29.9462 12.6396C29.322 12.9448 29.2049 13.1355 29.556 13.25C29.8291 13.3644 30.2973 13.1737 30.6093 12.9067C31.3115 12.1819 31.0385 12.0674 29.9462 12.6396Z" stroke="#008055"/>
<path d="M31.8187 13.1737C31.8187 13.3644 31.9747 13.5552 32.1698 13.5552C32.4038 13.5552 32.6769 13.3644 32.794 13.1737C32.911 12.9448 32.7549 12.7922 32.4429 12.7922C32.0918 12.7922 31.8187 12.9448 31.8187 13.1737Z" stroke="#008055"/>
<path d="M13.4055 14.2037C12.5863 14.5089 11.9231 14.9285 11.9231 15.1192C11.9231 15.31 12.4302 15.2337 13.0544 14.9285C13.6786 14.5851 14.2637 14.4707 14.4198 14.5851C14.5368 14.7377 14.6538 14.6233 14.6538 14.3944C14.6538 14.1655 14.9659 13.8985 15.356 13.8222C15.8242 13.7078 15.8242 13.6315 15.4341 13.6315C15.122 13.5933 14.1857 13.8603 13.4055 14.2037Z" stroke="#008055"/>
<path d="M52.3385 14.28C52.1824 14.4707 52.4555 14.547 52.8846 14.4326C53.7819 14.2037 53.8989 13.9366 53.1187 13.9366C52.8066 13.9366 52.4555 14.0892 52.3385 14.28Z" stroke="#008055"/>
<path d="M27.2154 17.1792C27.2154 17.7895 27.2934 18.0184 27.4104 17.637C27.4885 17.2936 27.4885 16.7596 27.4104 16.4925C27.2934 16.2636 27.2154 16.5307 27.2154 17.1792Z" stroke="#008055"/>
<path d="M54.25 16.9884C54.133 17.1792 54.211 17.3699 54.406 17.3699C54.6401 17.3699 54.8352 17.1792 54.8352 16.9884C54.8352 16.7596 54.7571 16.607 54.6791 16.607C54.5621 16.607 54.367 16.7596 54.25 16.9884Z" stroke="#008055"/>
<path d="M12.3522 20.2691C12.3522 20.6888 12.4692 20.8032 12.5863 20.498C12.7033 20.231 12.6643 19.8877 12.5473 19.7732C12.4302 19.6206 12.3132 19.8495 12.3522 20.2691Z" stroke="#008055"/>
<path d="M32.0527 21.1084C31.9357 21.2991 32.0918 21.4517 32.4038 21.4517C32.7159 21.4517 32.989 21.2991 32.989 21.1084C32.989 20.9558 32.833 20.8032 32.6379 20.8032C32.4038 20.8032 32.1698 20.9558 32.0527 21.1084Z" stroke="#008055"/>
<path d="M44.4973 21.9476C44.6143 22.1384 44.8093 22.3291 44.9264 22.3291C45.0044 22.3291 45.0824 22.1384 45.0824 21.9476C45.0824 21.7188 44.8874 21.5662 44.6533 21.5662C44.4582 21.5662 44.3802 21.7188 44.4973 21.9476Z" stroke="#008055"/>
<path d="M11.806 22.7487C12.0791 23.0158 12.3912 23.1302 12.5082 23.0158C12.6253 22.9013 12.4302 22.6724 12.0401 22.558C11.494 22.3291 11.4549 22.3673 11.806 22.7487Z" stroke="#008055"/>
<path d="M9.46538 23.2828C9.30934 23.588 9.38736 23.9313 9.58242 24.0458C9.81648 24.1983 9.97253 23.9313 9.97253 23.5117C9.97253 22.558 9.73846 22.4817 9.46538 23.2828Z" stroke="#008055"/>
<path d="M16.0973 23.1302C16.3703 23.3972 16.6824 23.5117 16.7995 23.3972C16.9165 23.2828 16.7214 23.0539 16.3313 22.9395C15.7852 22.7106 15.7462 22.7487 16.0973 23.1302Z" stroke="#008055"/>
<path d="M17.6187 23.4354C17.4626 23.6261 17.7357 23.7024 18.1648 23.588C19.0621 23.3591 19.1791 23.0921 18.3989 23.0921C18.0868 23.0921 17.7357 23.2447 17.6187 23.4354Z" stroke="#008055"/>
<path d="M51.7143 23.855C51.0121 24.3128 51.6363 24.3128 52.6896 23.855C53.1967 23.6261 53.2747 23.5117 52.8846 23.5117C52.5725 23.5117 52.0264 23.6643 51.7143 23.855Z" stroke="#008055"/>
<path d="M18.9451 25.0376C18.9451 25.2283 19.1401 25.3046 19.3352 25.1902C19.5692 25.0757 19.7253 24.885 19.7253 24.7706C19.7253 24.6943 19.5692 24.618 19.3352 24.618C19.1401 24.618 18.9451 24.8087 18.9451 25.0376Z" stroke="#008055"/>
<path d="M63.9247 25.8387C63.9637 26.2202 64.0028 26.5253 64.0808 26.5253C64.1198 26.5253 64.3538 26.2202 64.5489 25.8387C64.822 25.3046 64.783 25.1139 64.3929 25.1139C64.1198 25.1139 63.8857 25.4572 63.9247 25.8387Z" stroke="#008055"/>
<path d="M9.19231 26.1439C9.93352 26.6398 10.3626 26.6398 10.3626 26.1439C10.3626 25.915 9.97253 25.7624 9.5044 25.7624C8.76319 25.7624 8.72418 25.8387 9.19231 26.1439Z" stroke="#008055"/>
<path d="M66.5385 27.4409C66.5385 27.5172 66.8115 27.7079 67.1626 27.8224C67.4747 27.9368 67.6308 27.8987 67.5137 27.6698C67.2797 27.2883 66.5385 27.1357 66.5385 27.4409Z" stroke="#008055"/>
<path d="M54.328 29.0431C54.211 29.2338 54.367 29.6153 54.6791 29.8823C55.3033 30.4164 55.3813 30.0731 54.8742 29.2338C54.6791 28.9668 54.4451 28.8905 54.328 29.0431Z" stroke="#008055"/>
<path d="M56.9808 29.1957C56.8637 29.4246 57.0198 29.4627 57.3319 29.3483C58.0341 29.0812 58.1511 28.8142 57.6049 28.8142C57.3709 28.8142 57.0978 28.9668 56.9808 29.1957Z" stroke="#008055"/>
<path d="M69.2692 31.1031C69.2692 31.2938 69.4643 31.4845 69.6984 31.4845C69.8934 31.4845 69.9714 31.2938 69.8544 31.1031C69.7374 30.8742 69.5423 30.7216 69.4253 30.7216C69.3473 30.7216 69.2692 30.8742 69.2692 31.1031Z" stroke="#008055"/>
<path d="M54.7571 31.3701C55.0302 31.4845 55.3813 31.4464 55.4984 31.3319C55.6544 31.2175 55.4203 31.1031 54.9912 31.1412C54.5621 31.1412 54.4451 31.2556 54.7571 31.3701Z" stroke="#008055"/>
<path d="M22.8462 31.866C22.8462 32.0567 23.0802 32.2475 23.3923 32.2475C23.7044 32.2475 24.0945 32.0567 24.2115 31.866C24.3286 31.6371 24.0945 31.4845 23.6654 31.4845C23.1973 31.4845 22.8462 31.6371 22.8462 31.866Z" stroke="#008055"/>
<path d="M9.38736 32.629C9.27033 32.8578 9.42638 32.896 9.73846 32.7816C10.4407 32.5145 10.5577 32.2475 10.0115 32.2475C9.77747 32.2475 9.5044 32.4001 9.38736 32.629Z" stroke="#008055"/>
<path d="M59.7115 33.6971C59.9456 33.8878 60.4918 34.193 60.9989 34.3456C61.6621 34.5363 61.8571 34.4219 61.8181 33.8878C61.8181 33.5064 61.7011 33.3919 61.6231 33.6589C61.467 34.0023 61.1159 34.0023 60.3747 33.7352C59.7506 33.5064 59.4775 33.5064 59.7115 33.6971Z" stroke="#008055"/>
<path d="M4.94011 34.8034C4.39396 35.9859 5.01813 35.9478 6.34451 34.7652L7.35879 33.8497L6.34451 33.8878C5.72033 33.926 5.17418 34.2693 4.94011 34.8034Z" stroke="#008055"/>
<path d="M65.5632 34.1549C65.4462 34.3456 65.6022 34.5363 65.9533 34.5363C66.3044 34.5363 66.4604 34.3456 66.3434 34.1549C66.2264 33.926 66.0313 33.7734 65.9533 33.7734C65.8753 33.7734 65.6802 33.926 65.5632 34.1549Z" stroke="#008055"/>
<path d="M63.2225 34.5363C62.5984 34.8034 62.5593 34.8797 63.1055 34.8797C63.4566 34.9178 63.8857 34.7271 64.0028 34.5363C64.2758 34.1167 64.2758 34.1167 63.2225 34.5363Z" stroke="#008055"/>
<path d="M4.31593 36.4437C4.1989 36.6726 4.35495 36.7108 4.66703 36.5963C5.36923 36.3293 5.48626 36.0622 4.94011 36.0622C4.70604 36.0622 4.43297 36.2148 4.31593 36.4437Z" stroke="#008055"/>
<path d="M18.0478 36.8633C17.6577 37.0922 16.9945 37.2067 16.5654 37.0922C16.1753 36.9778 15.9022 37.0159 16.0192 37.2067C16.1363 37.3593 15.9412 37.6263 15.5901 37.7407C14.6929 38.0841 15.356 38.8089 16.2923 38.5037C16.7604 38.3892 16.9945 38.4274 16.8775 38.6181C16.7214 38.8089 16.8775 38.9996 17.1896 38.9996C17.6187 38.9996 17.6577 38.847 17.3846 38.5037C17.0725 38.1985 17.2676 37.817 18.0478 37.2448C19.2181 36.4056 19.2181 36.2148 18.0478 36.8633Z" stroke="#008055"/>
<path d="M52.8846 39.6481C52.8846 39.9914 54.4451 40.144 54.6791 39.8389C54.7962 39.6481 54.4451 39.4955 53.8989 39.4955C53.3528 39.4955 52.8846 39.5718 52.8846 39.6481Z" stroke="#008055"/>
<path d="M12.1181 40.2585C12.2352 40.4492 12.4302 40.64 12.5473 40.64C12.6253 40.64 12.7033 40.4492 12.7033 40.2585C12.7033 40.0296 12.5082 39.877 12.2742 39.877C12.0791 39.877 12.0011 40.0296 12.1181 40.2585Z" stroke="#008055"/>
<path d="M51.5192 40.2585C51.4022 40.4492 51.4412 40.64 51.6753 40.64C51.8703 40.64 52.1824 40.4492 52.2995 40.2585C52.4165 40.0296 52.3775 39.877 52.1434 39.877C51.9484 39.877 51.6363 40.0296 51.5192 40.2585Z" stroke="#008055"/>
<path d="M4.43297 42.4329C4.70604 42.5473 5.05714 42.5092 5.17418 42.3947C5.33022 42.2803 5.09615 42.1659 4.66703 42.204C4.23791 42.204 4.12088 42.3184 4.43297 42.4329Z" stroke="#008055"/>
<path d="M1 43.9206C1 44.2258 1.19505 44.3784 1.39011 44.264C1.62418 44.1114 1.7022 43.8443 1.58516 43.6536C1.23407 43.1195 1 43.234 1 43.9206Z" stroke="#008055"/>
<path d="M5.29121 46.0188C4.55 46.4765 3.8478 46.858 3.73077 46.8962C3.61374 46.8962 3.57473 47.0487 3.61374 47.2013C3.69176 47.3921 3.53571 47.5065 3.26264 47.5065C3.02857 47.5065 2.91154 47.621 3.02857 47.7354C3.18462 47.8498 3.73077 47.6591 4.27692 47.3158C4.82308 46.9343 5.29121 46.7817 5.29121 46.9343C5.29121 47.125 5.64231 46.858 6.07143 46.3621C7.31978 44.9506 7.20275 44.9125 5.29121 46.0188Z" stroke="#008055"/>
<path d="M67.2797 46.2476C66.7725 46.858 66.8115 46.8962 67.4357 46.4002C68.0599 45.9043 68.255 45.5991 67.9429 45.5991C67.8648 45.5991 67.5528 45.9043 67.2797 46.2476Z" stroke="#008055"/>
<path d="M9.30934 46.5528C9.30934 46.8199 9.54341 46.9724 9.85549 46.858C10.1286 46.7436 10.3626 46.6291 10.3626 46.5528C10.3626 46.4765 10.1286 46.3621 9.85549 46.2476C9.54341 46.1332 9.30934 46.2858 9.30934 46.5528Z" stroke="#008055"/>
<path d="M7.86593 47.7354C7.51484 48.0406 7.24176 48.4984 7.24176 48.7654C7.24176 48.9943 7.47582 48.918 7.7489 48.5746C7.98297 48.2313 8.49011 47.888 8.8022 47.8117C9.1533 47.6973 9.19231 47.5447 8.91923 47.3921C8.68517 47.2395 8.17802 47.3921 7.86593 47.7354Z" stroke="#008055"/>
<path d="M57.761 48.6509C57.878 48.8417 58.2291 48.918 58.5412 48.7654C59.3604 48.4984 59.2824 48.2695 58.3072 48.2695C57.878 48.2695 57.605 48.4221 57.761 48.6509Z" stroke="#008055"/>
<path d="M70.3615 48.5365C70.5956 48.6128 71.0637 48.6128 71.3368 48.5365C71.5709 48.4221 71.3758 48.3458 70.8297 48.3458C70.2835 48.3458 70.0885 48.4221 70.3615 48.5365Z" stroke="#008055"/>
<path d="M6.22747 48.9943C6.38352 49.2613 6.14945 49.5665 5.6033 49.7572C4.97912 50.0243 4.9011 50.1387 5.36923 50.1387C5.72033 50.1768 6.07143 50.4057 6.18846 50.6346C6.46154 51.4357 5.6033 52.3894 4.82308 52.1605C4.27692 52.0461 4.15989 52.1605 4.35495 52.6183C4.62802 53.3431 5.05714 53.3812 6.11044 52.809C6.57857 52.5801 6.81264 52.1605 6.6956 51.8553C6.57857 51.5502 6.73462 51.3213 7.0467 51.3213C7.35879 51.3213 7.51484 51.5502 7.3978 51.8553C7.24176 52.275 7.3978 52.3513 8.02198 52.1987L8.84121 51.9698L7.94396 51.3594C7.43681 51.0161 6.92967 50.7872 6.73462 50.8635C6.57857 50.9017 6.53956 50.5202 6.6956 50.0243C6.81264 49.4902 6.73462 48.9943 6.42253 48.8417C6.11044 48.6509 6.03242 48.6891 6.22747 48.9943Z" stroke="#008055"/>
<path d="M35.7198 49.2232C35.7198 49.5283 35.8758 49.7954 36.1099 49.7954C36.3049 49.7954 36.383 49.5283 36.2659 49.2232C36.1099 48.918 35.9539 48.6509 35.8758 48.6509C35.7978 48.6509 35.7198 48.918 35.7198 49.2232Z" stroke="#008055"/>
<path d="M57.5659 49.6046C57.5659 49.7954 57.761 50.2531 57.956 50.5583C58.1511 50.8635 58.3462 50.9398 58.3462 50.7491C58.3462 50.5202 58.1511 50.1006 57.956 49.7954C57.761 49.4902 57.5659 49.3757 57.5659 49.6046Z" stroke="#008055"/>
<path d="M9.69945 50.4439C9.8555 50.5583 9.73846 50.9398 9.46539 51.2831C9.03626 51.8172 9.07528 51.8172 9.69945 51.3594C10.4797 50.7872 10.5577 50.1768 9.89451 50.1768C9.66044 50.1768 9.58242 50.2913 9.69945 50.4439Z" stroke="#008055"/>
<path d="M20.2714 52.2368C20.4665 52.7709 20.3495 52.8853 19.9203 52.6946C19.6082 52.5801 19.3352 52.6564 19.3352 52.8472C19.3352 53.0379 19.7643 53.1905 20.2714 53.1524C21.0907 53.0761 21.1687 52.9616 20.7786 52.4657C20.0374 51.512 19.9984 51.4739 20.2714 52.2368Z" stroke="#008055"/>
<path d="M12.5473 52.3894C12.4302 52.5801 12.5863 52.7327 12.8984 52.7327C13.2104 52.7327 13.3665 52.5801 13.2495 52.3894C13.1324 52.2368 12.9764 52.0842 12.8984 52.0842C12.8203 52.0842 12.6643 52.2368 12.5473 52.3894Z" stroke="#008055"/>
<path d="M10.5967 53.6864C9.73846 54.869 9.81648 55.136 10.9088 54.6401C11.572 54.3349 11.728 54.106 11.4159 53.9153C11.0648 53.6864 11.1038 53.4957 11.533 53.2287C11.8841 52.9998 11.9231 52.8472 11.65 52.8472C11.4159 52.8472 10.9088 53.2287 10.5967 53.6864Z" stroke="#008055"/>
<path d="M71.2198 55.136C70.7126 55.4412 70.7517 55.5175 71.3368 55.5175C71.6879 55.5175 72 55.3268 72 55.136C72 54.6783 71.961 54.6783 71.2198 55.136Z" stroke="#008055"/>
<path d="M9.1533 56.2805C8.02198 57.463 7.90495 57.9971 9.03627 56.9671C9.62143 56.3949 10.0506 55.8608 9.93352 55.7845C9.8555 55.7082 9.5044 55.9371 9.1533 56.2805Z" stroke="#008055"/>
<path d="M35.2907 5.20092C35.0956 5.62055 34.7445 5.84943 34.5495 5.73499C34.3544 5.62055 34.2374 6.00202 34.2764 6.57423C34.3154 7.33719 34.1984 7.60422 33.7692 7.52792C33.3011 7.41348 33.2621 7.48978 33.6912 7.87126C34.2374 8.44347 34.3154 9.74048 33.7692 9.74048C33.5742 9.74048 33.3791 9.47345 33.3791 9.16827C33.3791 8.86309 33.2231 8.59606 32.989 8.59606C32.794 8.59606 32.5989 8.74865 32.5989 8.97753C32.5989 9.16827 32.3258 9.35901 32.0137 9.35901C31.7017 9.35901 31.4286 9.20642 31.4286 9.01568C31.4286 8.82494 31.1555 8.55791 30.8044 8.44347C30.3753 8.29088 30.4923 8.55791 31.1165 9.32086C31.6236 9.89307 32.0918 10.3508 32.1698 10.2745C32.2478 10.1983 32.5989 10.5034 32.911 10.9231C33.2621 11.4571 33.3401 11.8005 33.067 11.9912C32.833 12.1438 32.872 12.4108 33.2231 12.716C33.7692 13.2119 33.9643 12.9067 33.8082 11.9149C33.8082 11.7623 33.9643 11.6479 34.1984 11.6479C34.4324 11.6479 34.5104 11.953 34.3544 12.3727C34.2374 12.7923 34.3154 13.2119 34.5495 13.3645C35.1346 13.7078 35.0176 14.6997 34.3544 14.6997C34.0423 14.6997 33.7692 14.4326 33.7692 14.1275C33.7692 13.6697 33.6132 13.5934 33.106 13.8986C32.6769 14.1275 32.1698 14.1275 31.7017 13.8604C31.3115 13.6697 30.8434 13.5934 30.7264 13.746C30.6093 13.8604 30.8824 14.0512 31.3506 14.2038C32.3258 14.4326 32.4039 14.7378 31.7407 15.3863C31.3896 15.7297 31.5066 15.8441 32.3648 15.8441C32.989 15.8441 33.3401 15.9967 33.1841 16.2256C33.028 16.4545 32.7549 16.5308 32.5599 16.4163C32.3648 16.2637 32.2088 16.3782 32.2088 16.6452C32.2088 16.9122 32.5989 16.9885 33.3791 16.8359C34.3934 16.6452 34.5495 16.7215 34.5495 17.4463C34.5495 17.9041 34.9006 18.667 35.3687 19.1248C36.1099 19.8877 36.1489 20.1166 35.7198 21.3755C35.3687 22.4055 35.1346 22.6725 34.9006 22.291C34.6665 21.8714 34.4714 21.8714 34.1203 22.2147C33.3011 23.0158 30.2582 21.1466 30.2582 19.7733C30.2582 19.2011 30.1802 19.2011 29.9071 19.6207C29.6731 19.964 29.6731 20.46 29.8681 20.8033C30.1412 21.2992 30.0242 21.4136 29.361 21.3374C28.8929 21.2992 28.3857 21.2229 28.2297 21.2229C28.0346 21.1848 27.8786 20.5362 27.8786 19.7352C27.8396 18.9722 27.7615 18.6289 27.6445 18.9722C27.5665 19.3155 27.2544 19.5444 27.0203 19.43C26.1621 19.1248 26.5132 15.2337 27.5665 13.6315C29.0099 11.4571 29.439 10.6179 29.2049 10.389C29.0879 10.2745 28.5418 11.0757 27.9566 12.1438C27.3324 13.2501 26.6302 14.0893 26.3962 14.013C26.0451 13.9367 26.006 14.2038 26.1621 14.7378C26.3962 15.4626 26.3181 15.5389 25.5769 15.3482C24.7967 15.1574 24.7577 15.1956 25.3429 15.8059C26.0841 16.607 26.1231 17.2556 25.4989 17.4844C25.1088 17.637 25.1088 17.7133 25.4989 17.7133C25.733 17.7515 25.967 17.9422 25.967 18.133C25.967 18.3618 25.4209 18.2474 24.7577 17.9041C24.0555 17.5607 23.6654 17.1793 23.8604 17.0267C24.2506 16.7596 24.3676 14.6997 23.9775 14.6997C23.7824 14.6997 22.8462 12.983 22.8462 12.5634C22.8462 12.449 23.0802 12.4871 23.3533 12.6016C23.5874 12.7541 23.4313 12.5253 22.9242 12.1438C22.339 11.686 22.183 11.3045 22.456 11.0375C22.6901 10.8086 22.5731 10.656 22.0659 10.656C21.6368 10.656 21.2857 10.8086 21.2857 10.9612C21.2857 11.4953 20.5445 11.3045 19.8033 10.5797C18.789 9.66419 18.2429 9.62604 17.7747 10.5034C17.5407 10.9231 17.5017 11.2664 17.6577 11.2664C17.8137 11.2664 17.9698 11.7623 17.9698 12.4108C17.9698 13.0212 17.8528 13.5552 17.6967 13.5552C17.5017 13.5552 17.3846 13.2501 17.3846 12.8686C17.3846 12.0675 15.2 10.122 14.3028 10.122C13.8736 10.1601 13.9517 10.3127 14.6538 10.6942C15.4731 11.1519 15.4731 11.419 14.6538 11.3427C14.5368 11.3427 14.4198 11.6479 14.4198 12.0675C14.4198 12.9067 14.4588 12.9067 15.5121 12.3727C16.0973 12.0675 16.2533 12.0675 16.0582 12.3727C15.9022 12.6016 16.0582 12.7923 16.3703 12.7923C16.7214 12.7923 16.9945 12.9449 16.9945 13.1738C16.9945 13.3645 17.6577 13.8223 18.4379 14.1275C19.7643 14.6615 21.2077 16.073 21.0126 16.6833C20.9346 16.8359 21.2467 17.0648 21.6758 17.1793C22.1049 17.3319 22.456 17.5989 22.456 17.8278C22.456 18.0567 22.144 18.0948 21.7929 17.9422C21.4028 17.8278 20.4665 17.637 19.7253 17.5226C18.5159 17.4081 18.4769 17.4463 19.1401 17.8278C19.5692 18.0567 20.2714 18.3237 20.7006 18.3618C21.1297 18.4 21.5978 18.4763 21.7929 18.4763C21.9489 18.5144 22.0659 18.7052 22.0659 18.9341C22.0659 19.2392 21.8709 19.2392 21.4808 18.8959C21.0907 18.5526 20.8956 18.5526 20.8956 18.8578C20.8956 19.2774 21.3637 19.43 22.4951 19.3155C22.8071 19.2774 23.3143 19.697 23.6264 20.2311C23.8995 20.7651 24.2896 21.1848 24.4846 21.1848C24.6407 21.1848 24.7967 21.4518 24.7967 21.757C24.7967 22.1003 25.0308 22.3292 25.3038 22.2529C26.2791 22.1003 27.4495 22.7488 27.6055 23.5881C27.7615 24.4273 27.7225 24.4654 26.006 24.1984C25.0308 24.0458 23.9775 23.8932 23.7044 23.8932C23.4313 23.8551 23.3143 23.7025 23.4313 23.4736C23.5484 23.2829 23.0412 23.3592 22.3 23.6644C21.4418 24.0077 20.8566 24.084 20.7006 23.8551C20.5835 23.6262 20.1934 23.4736 19.8813 23.4736C19.4132 23.4736 19.4132 23.6262 19.7253 24.2366C19.9593 24.6562 19.9984 24.9995 19.8423 24.9995C19.6863 24.9995 19.8033 25.1903 20.1154 25.381C20.5445 25.648 20.3104 25.7625 19.2181 25.7625C18.2038 25.7625 17.8137 25.6099 18.0088 25.3428C18.1258 25.114 18.0088 24.7706 17.7357 24.5799C17.4236 24.3892 17.0725 24.4654 16.9165 24.7325C16.7214 25.0377 16.6044 24.9614 16.6044 24.5036C16.6044 24.1603 16.4484 23.8551 16.2533 23.8551C15.6681 23.8551 15.4731 24.8851 15.9412 25.4191C16.3313 25.8388 16.2923 25.8388 15.7462 25.4191C15.3951 25.1521 15.2 24.6943 15.317 24.351C15.5121 23.8932 15.3951 23.8551 14.8099 24.1221C14.4198 24.351 13.8346 24.4273 13.6006 24.351C13.3275 24.2366 13.0934 24.351 13.0934 24.618C13.0934 24.8469 13.2495 24.9614 13.4055 24.8469C13.9126 24.5417 15.4341 25.7243 15.4341 26.3728C15.4341 26.678 15.083 26.9069 14.5758 26.9069C13.6786 26.8687 13.6786 26.8687 14.4588 26.2584C15.083 25.7625 15.122 25.7243 14.5758 25.9151C12.8593 26.5254 12.5863 26.5254 13.4445 26.0295C14.4198 25.4573 14.1857 25.0377 12.9764 25.1903C12.4302 25.3047 12.3522 25.1521 12.5473 24.5417C12.7033 24.0077 12.6643 23.8551 12.3522 24.0458C12.0791 24.1984 11.689 24.1221 11.4159 23.9314C11.0648 23.6262 10.9478 23.8169 10.9478 24.6562C10.9478 25.2665 11.0648 25.7625 11.2599 25.7625C11.4159 25.7625 11.533 26.1821 11.533 26.7162C11.533 27.2502 11.3769 27.6698 11.1429 27.6698C10.9478 27.6698 10.7528 27.4791 10.7528 27.2502C10.7528 26.945 10.5187 26.9832 10.0896 27.3265C9.66044 27.708 9.54341 27.708 9.73846 27.3647C9.89451 27.1358 9.81649 26.9069 9.62143 26.9069C9.38737 26.9069 9.19231 27.2502 9.19231 27.6698C9.19231 28.1658 8.99726 28.3565 8.60715 28.2039C8.29506 28.0513 8.02198 28.1658 8.02198 28.3946C8.02198 29.2339 9.07528 29.2339 10.4017 28.4709C11.806 27.6317 12.8984 27.4028 12.5082 28.0513C12.2352 28.4709 14.1077 28.1658 16.2923 27.441C17.1115 27.1739 18.3989 27.0213 19.2181 27.0976C20.3885 27.2502 20.4665 27.2121 19.7253 26.9832C18.828 26.678 18.789 26.6399 19.5302 26.411C20.7396 26.0676 22.183 26.2965 22.378 26.8687C22.4951 27.2502 22.3 27.2884 21.6758 27.0976C21.0907 26.9069 20.8956 26.945 21.0517 27.2502C21.2077 27.4791 21.8319 27.6698 22.417 27.6698C23.0412 27.6698 23.8604 28.0513 24.4066 28.6235L25.3038 29.5772L24.1725 29.6154C21.5978 29.6535 21.8709 30.1876 24.4846 30.1876C27.2934 30.1876 29.322 30.7979 28.8929 31.5228C28.7368 31.7135 28.1517 31.8661 27.5665 31.8661C26.9423 31.8661 26.2401 32.095 26.006 32.4001C25.4599 33.0487 24.0165 33.4683 24.0165 32.9724C24.0165 32.7816 23.7044 32.629 23.3533 32.629C22.7681 32.629 22.8071 32.7053 23.4703 33.2012C23.8604 33.5064 24.0945 33.7735 23.9385 33.8116C23.3533 33.9261 23.0412 34.0405 22.3 34.3457C21.7929 34.5746 21.4808 34.5364 21.3637 34.2312C21.2857 33.9642 21.0517 33.8498 20.8956 33.9642C20.7006 34.0786 20.6225 34.422 20.7786 34.7271C20.8956 35.0323 20.7786 35.2994 20.5055 35.2994C20.2714 35.2994 20.1934 35.1086 20.3104 34.9179C20.4275 34.689 20.3885 34.5364 20.1544 34.5364C19.9203 34.5364 19.8423 34.3075 19.9593 34.0405C20.0764 33.7353 19.8813 33.5064 19.5302 33.5064C18.9841 33.5064 18.789 33.8879 18.906 34.6127C18.906 34.8034 18.75 34.9179 18.5549 34.9179C18.0868 34.9179 16.6044 33.5064 16.6044 33.0487C16.6044 32.4764 17.5407 31.9424 18.75 31.7898C19.8423 31.6753 21.2857 30.8361 21.2857 30.302C21.2857 30.1494 20.5445 30.302 19.6473 30.6072C18.3209 31.0268 17.9698 31.065 17.7357 30.6454C17.5407 30.3783 17.4626 29.9206 17.5797 29.6917C17.6577 29.4246 17.3456 29.005 16.8775 28.8143C16.0973 28.4328 16.0582 28.4328 16.7214 28.9669C17.4236 29.5009 17.4236 29.5009 16.6434 29.768C15.7071 30.035 15.5901 30.5691 16.3313 30.8361C16.6824 30.9887 16.6824 31.1413 16.2533 31.4083C15.8242 31.7135 15.8242 31.7898 16.2533 31.9424C16.5654 32.0568 16.6824 32.2857 16.5264 32.4383C16.0582 32.9342 15.3951 32.2094 15.6681 31.4083C15.8632 30.7217 15.7852 30.6454 14.8489 30.8742C14.2247 31.0268 13.5615 30.9505 13.2495 30.6835C12.9374 30.4546 12.7033 30.3402 12.7033 30.4546C12.7033 30.5691 12.1571 30.5309 11.533 30.3402C10.7918 30.1494 10.4407 30.1494 10.5577 30.3783C10.9478 30.9505 9.69945 30.7598 9.03627 30.1113C8.68517 29.8061 8.41209 29.6917 8.41209 29.9206C8.41209 30.1113 8.72418 30.4546 9.07528 30.6835C9.62143 30.9505 9.58242 31.0268 8.72418 30.9887C7.90495 30.9124 7.78791 30.7979 8.02198 30.1494C8.17802 29.6917 8.13901 29.2339 7.86594 29.005C7.20275 28.3947 5.01813 28.3565 4.78407 28.9287C4.66704 29.272 4.9011 29.3865 5.64231 29.3102C6.18846 29.2339 6.89066 29.3102 7.16374 29.5009C7.86594 29.9587 7.31978 31.1031 6.57857 30.8361C6.14945 30.6835 6.03242 30.7598 6.22748 31.0268C6.42253 31.332 6.18846 31.4846 5.64231 31.4846C5.17418 31.4846 4.9011 31.599 5.01813 31.7135C5.13517 31.8661 5.09616 32.2857 4.86209 32.6672C4.43297 33.5064 4.9011 33.6209 5.64231 32.8961C5.91539 32.6672 6.11044 32.5909 6.07143 32.8198C5.87638 33.659 6.11044 33.8498 6.61759 33.392C6.92967 33.1631 7.12473 32.7435 7.0077 32.4383C6.77363 31.8279 7.47583 31.332 7.82693 31.8661C7.98297 32.1331 8.37308 32.0568 8.91923 31.6753C9.38737 31.3702 10.1676 31.1031 10.6747 31.1031C11.494 31.1031 11.533 31.1794 11.1429 31.6753C10.5577 32.362 10.8698 32.4001 11.8451 31.8279C12.4302 31.4846 12.7423 31.5228 13.4055 32.0568C13.8346 32.4383 14.1467 32.8961 14.0297 33.0487C13.9517 33.2012 14.2247 33.2394 14.6148 33.125C15.122 33.0105 15.7071 33.3538 16.4874 34.1549C17.0725 34.8416 17.5407 35.5282 17.5017 35.719C17.4236 35.9097 17.5797 36.1005 17.7747 36.1005C19.4522 36.3293 19.8033 36.749 19.0231 37.6264C18.672 38.046 18.4379 38.4275 18.5549 38.5038C18.672 38.5801 18.3989 39.0378 17.9698 39.5337L17.1896 40.4493L18.0868 39.7245C18.633 39.2286 18.9451 39.1523 18.9451 39.4956C18.9451 39.8389 19.0621 39.8771 19.4912 39.5337C19.8033 39.2667 19.9593 38.7708 19.8423 38.3893C19.7253 38.0078 19.8813 37.5501 20.1154 37.3975C20.4275 37.2067 20.5445 37.3593 20.4275 37.8171C20.3495 38.2367 20.5445 38.7708 20.8956 39.0378C21.4028 39.4956 21.4028 39.5337 20.8956 39.3049C20.5835 39.1523 20.6615 39.343 21.0517 39.6482C21.4808 39.9915 22.0269 40.2585 22.3 40.2585C22.5341 40.2585 22.9632 40.4874 23.1973 40.7926C23.8995 41.5937 16.4484 41.67 15.5901 40.8689C14.8099 40.106 14.2637 40.106 14.2637 40.8308C14.2637 41.1359 14.1077 41.403 13.8736 41.403C13.6786 41.403 13.4835 41.67 13.4835 42.0133C13.4835 42.4711 13.2495 42.5856 12.5082 42.3948C11.8841 42.2422 11.1819 42.3567 10.6357 42.7381C9.30934 43.6537 8.95824 43.4248 10.0115 42.2804C10.5187 41.7463 10.7137 41.403 10.4407 41.5556C10.2066 41.7082 9.97253 41.67 9.97253 41.4793C9.97253 41.2885 10.3626 40.9834 10.8308 40.7545C11.4159 40.5256 11.533 40.2967 11.2209 40.106C10.9478 39.9534 10.7528 39.9915 10.7528 40.1823C10.7528 40.4111 10.4407 40.4874 10.0506 40.373C9.54341 40.2585 9.34835 40.4493 9.27033 41.2122C9.19231 42.2422 8.56813 43.0433 7.7489 43.1959C7.43682 43.2722 7.35879 43.0433 7.51484 42.6237C7.7489 42.0896 7.67088 42.0515 7.16374 42.433C6.85165 42.7 6.46154 42.8144 6.34451 42.6618C6.18846 42.5474 6.07143 42.5855 6.07143 42.8144C6.07143 43.0433 5.40824 43.1959 4.51099 43.1578C3.30165 43.0815 3.06759 43.1959 3.41868 43.5774C3.73077 43.9589 3.65275 44.0733 3.1066 44.0733C2.48242 44.0733 2.44341 44.1496 2.95055 44.4548C3.41868 44.76 3.41868 44.8363 2.7555 44.8363C2.13132 44.8363 2.09231 44.9126 2.52143 45.1796C2.91154 45.4085 3.30165 45.294 3.80879 44.7218C4.43297 43.9589 4.55 43.9589 5.01813 44.4929C5.36923 44.9507 5.72033 45.027 6.38352 44.7981C6.92967 44.6074 7.24176 44.6074 7.24176 44.8744C7.24176 45.1033 7.51484 44.9888 7.86594 44.6837C8.60715 43.9589 9.19231 43.8826 9.19231 44.5311C9.19231 44.7981 9.38737 44.7218 9.62143 44.3785C10.0896 43.5392 11.3769 43.4629 11.65 44.2259C11.806 44.6455 11.689 44.7218 11.2599 44.5692C10.8698 44.4166 10.7137 44.4929 10.9088 44.76C11.0258 44.9888 10.8308 45.3322 10.4797 45.5611C10.0896 45.7899 9.97253 45.9807 10.1676 45.9807C10.4017 45.9807 11.2599 45.4085 12.1181 44.76C14.0297 43.1959 18.711 41.8607 21.4418 42.0515C23.5093 42.2422 24.6407 42.9289 23.9385 43.6155C23.4313 44.1115 23.9385 44.4166 25.5379 44.5311C26.2011 44.5692 26.7473 44.7218 26.7473 44.8744C26.7473 45.3703 25.811 45.4848 24.9137 45.1796C24.2115 44.9126 24.0165 44.9888 24.0165 45.4466C24.0165 45.9044 23.7044 46.0188 22.6901 45.8662C21.9489 45.7518 21.1687 45.8662 20.9736 46.057C20.7006 46.324 20.3495 46.2859 19.8423 46.0188C19.1011 45.5992 19.1791 45.5611 21.0907 45.4085C21.7538 45.3322 22.378 45.294 22.5341 45.2559C22.6901 45.2177 22.6901 44.9126 22.5731 44.5692C22.378 44.1115 22.4951 43.997 22.8852 44.1496C23.2753 44.3022 23.4703 44.1115 23.5093 43.6918C23.5484 43.3104 23.3143 42.8907 22.9632 42.7763C22.3 42.5093 21.6758 42.7763 21.6758 43.3485C21.6758 43.5774 21.8709 43.6155 22.0659 43.5011C22.261 43.3866 22.456 43.3485 22.456 43.4629C22.456 43.5774 21.6758 44.0352 20.7006 44.4929C19.7253 44.9507 18.9451 45.4466 18.9451 45.6755C18.9451 45.8662 18.828 45.9425 18.633 45.8281C18.0478 45.4848 16.9165 46.6673 17.1506 47.4303C17.3456 47.9644 17.1115 48.2695 16.4093 48.5747C15.8632 48.8418 15.122 49.0325 14.8099 49.0325C14.4978 49.0325 14.3418 49.1851 14.4588 49.414C14.6148 49.6429 14.2247 49.7954 13.6006 49.7954C12.8593 49.7954 12.6643 49.9099 13.0154 50.1388C13.4445 50.3677 13.4055 50.5202 12.8203 50.7491C12.4302 50.9399 11.767 51.0925 11.3379 51.0925C10.9088 51.1306 10.3236 51.5884 10.0115 52.2369C9.62143 53.0761 9.42638 53.1906 9.1533 52.8091C8.84121 52.3513 8.72418 52.3513 8.4511 52.8472C8.21704 53.1524 7.94396 53.2669 7.78791 53.1143C7.43682 52.771 6.42253 53.6102 6.69561 54.0298C6.81264 54.2206 7.31978 54.1061 7.86594 53.7628C8.76319 53.1906 8.8022 53.1906 8.8022 53.8772C8.8022 54.2587 8.56813 54.8309 8.29506 55.1361C7.90495 55.5939 7.94396 55.5939 8.52912 55.1743C8.88022 54.9072 9.19231 54.4494 9.19231 54.1824C9.19231 53.5339 10.4797 52.4658 11.2989 52.4658C11.65 52.4658 11.8841 52.3132 11.767 52.1606C11.65 51.9699 11.9621 51.8554 12.4302 51.8936C12.8984 51.9317 13.8346 51.741 14.5368 51.4358C16.2533 50.7491 16.8385 50.7873 16.2143 51.5121C15.9412 51.8173 15.4731 52.0843 15.2 52.0843C14.8879 52.0843 14.6538 52.275 14.6538 52.5039C14.6538 52.7328 14.7709 52.8472 14.9659 52.771C19.3742 50.5965 20.9736 50.2532 21.9879 51.245C22.417 51.6647 22.8852 51.9317 23.0022 51.8173C23.1192 51.7028 23.7434 51.5502 24.4066 51.4739C25.733 51.3213 26.006 51.8936 24.7967 52.275C24.3676 52.3895 23.8214 52.8472 23.6264 53.2669C23.1192 54.1824 22.3 54.2206 22.5341 53.305C22.6511 52.9235 22.4951 52.4276 22.222 52.1606C21.4418 51.4739 21.2467 51.5884 21.5198 52.6184C21.6758 53.3432 21.5588 53.5721 20.7396 53.7628C18.4379 54.335 15.8242 58.3024 15.8242 61.2779C15.8242 61.6593 15.6291 62.079 15.4341 62.1934C15.2 62.346 15.122 62.613 15.278 62.8038C15.5901 63.2997 16.2143 62.8419 16.2143 62.079C16.2143 61.7356 16.4093 60.7438 16.6434 59.9427C17.1115 58.2642 17.5017 58.5312 17.9698 60.8964C18.2038 62.1171 18.0868 62.3841 16.9945 63.2234L15.7852 64.1389L16.6044 64.8637C17.3846 65.5504 17.4236 65.5504 18.0868 64.6349L18.75 63.7193L18.9451 65.0545C19.1011 66.1989 19.2962 66.3896 20.2714 66.5041C21.2467 66.6185 21.3637 66.5422 21.0907 65.9319C19.9203 63.2997 20.7786 61.6212 23.3143 61.6212C24.9918 61.6212 25.0698 61.8501 24.2115 64.2915C23.4313 66.4659 23.4313 66.5804 24.7967 66.5804C25.694 66.5804 25.889 66.4278 25.694 65.97C25.4599 65.3597 27.0593 61.6212 27.5665 61.6212C28.0736 61.6212 30.7264 66.1608 30.4533 66.5804C30.2973 66.8093 30.6874 66.9619 31.3896 66.9619C32.5599 66.9619 32.989 66.4659 32.2088 66.0082C31.7797 65.7411 30.2582 60.9345 30.2582 59.8283C30.2582 58.5694 31.0775 58.1498 32.7549 58.6075L34.2374 59.0272L34.0033 60.9345C33.7302 62.7275 34.2764 65.4359 34.8615 65.4359C35.0176 65.4359 35.1346 64.2152 35.1346 62.7275C35.1346 60.5149 35.2907 59.9427 35.8758 59.4849C36.3049 59.1797 36.422 58.9509 36.1879 58.9509C35.9148 58.9509 35.7198 58.6838 35.7198 58.3405C35.7198 57.7301 33.7302 54.7165 32.5209 53.5339C32.1308 53.1524 31.8187 52.9998 31.8187 53.2287C31.8187 53.4195 31.0775 53.305 30.1802 52.9617L28.5808 52.3513L27.7615 53.3432C26.3571 55.0217 26.2791 54.4876 27.6445 52.5421C29.556 49.7954 30.6874 48.651 31.5846 48.6892C32.0528 48.7273 32.989 48.6129 33.6912 48.4603C34.8225 48.1932 34.9396 48.2314 34.9396 49.1469C34.9396 49.6429 35.1736 50.2914 35.4467 50.5202C36.1879 51.0925 36.2269 53.9535 35.4857 55.098L34.9006 56.0898L35.6808 55.1743C36.6951 54.068 36.8121 51.2832 35.8758 50.4058C35.0176 49.5284 35.3297 48.4984 36.539 48.3458C37.3192 48.2695 37.6313 48.4221 37.8264 49.1088C38.2555 50.6728 38.0995 53.2287 37.5923 53.2287C37.2412 53.2287 37.2412 53.3432 37.6313 53.5721C38.0604 53.8391 38.1385 54.9454 37.9824 59.5231C37.7484 64.673 37.6703 65.1689 36.8511 66.0463L35.9538 67L46.8379 66.7711L46.955 65.2834C47.033 64.4441 47.3061 63.4523 47.6181 63.0327C48.0863 62.3841 48.1643 62.4986 48.3984 64.4441C48.6714 66.3515 48.7885 66.5804 49.6077 66.5804C50.505 66.5804 50.544 66.5422 50.3099 63.7575C50.1539 62.0027 50.1929 60.8582 50.4269 60.7438C50.661 60.5912 51.5192 60.7057 52.3385 61.0108C54.328 61.6593 55.0692 63.0327 54.5231 65.0926C54.133 66.5422 54.172 66.5804 55.2253 66.5804C56.2396 66.5804 56.3176 66.4278 56.5517 64.5586L56.8637 62.5749L57.8 63.7193C58.3072 64.3297 58.8533 65.2452 58.9703 65.703C59.1654 66.3515 59.5165 66.5804 60.3357 66.5804C61.6621 66.5804 61.6621 66.5041 60.8429 65.2452C60.4137 64.5967 60.3357 63.9482 60.5308 62.8801C60.7648 61.6593 60.8429 61.5449 61.1159 62.1934C61.35 62.6512 61.428 61.6975 61.35 59.6375C61.272 56.7002 61.155 56.2424 60.2967 55.3268C58.7363 53.6865 57.3709 53.2287 53.1577 52.8472C50.9731 52.6565 49.1396 52.3513 49.0615 52.1224C48.9835 51.8936 48.5544 51.6647 48.0863 51.6647C47.4231 51.6265 47.3841 51.5884 47.9302 51.4358C48.2813 51.3595 48.5934 51.0162 48.5934 50.7491C48.5934 50.2914 49.6857 49.681 50.622 49.6047C50.739 49.6047 51.0121 49.4903 51.1681 49.3377C51.3242 49.1851 50.778 49.0706 49.9978 49.1088C48.9835 49.1469 48.3593 48.918 47.7742 48.3458C47.15 47.6592 47.111 47.5066 47.6181 47.5066C47.9302 47.5066 48.2033 47.6592 48.2033 47.8118C48.2033 48.0025 48.7495 48.1169 49.3736 48.0788C50.0368 48.0407 50.661 48.1551 50.739 48.3077C50.8561 48.4603 51.3242 48.4984 51.7923 48.3458C52.4165 48.1932 52.5725 48.2695 52.3775 48.7273C52.2214 49.1469 52.7286 49.681 54.094 50.5202C55.1473 51.1306 56.0055 51.5121 56.0055 51.2832C56.0055 51.0925 55.7324 50.8254 55.4203 50.711C55.1082 50.5584 54.8352 50.2151 54.8352 49.948C54.8352 49.4903 54.9912 49.4521 55.7324 49.8336L56.5907 50.2532L55.7324 49.4521C55.2253 48.9943 54.8352 48.4603 54.8352 48.2695C54.8352 47.8118 56.1225 48.0788 56.3176 48.5747C56.6297 49.5666 57.1368 48.9562 57.0198 47.6973C56.8637 46.1714 57.3709 45.9807 58.6582 47.1251C59.1264 47.5447 59.6725 47.8881 59.8676 47.8881C60.8039 47.8881 62.2082 48.8036 62.4423 49.5666C62.5984 50.0625 62.7544 50.1769 62.9104 49.8717C63.1835 49.2232 64.0808 49.2995 64.5099 50.0625C64.744 50.444 65.1341 50.5965 65.5242 50.444C65.8753 50.2914 66.1484 50.3677 66.1484 50.5584C66.1484 50.7491 66.4214 50.7873 66.8115 50.6728C67.2407 50.5202 67.3577 50.5584 67.1626 50.8636C66.7725 51.4739 67.3967 51.4358 68.0989 50.8254C68.411 50.5965 68.528 50.5202 68.411 50.711C68.0599 51.1306 69.6203 53.305 70.0495 53.038C70.9077 52.5039 68.9181 50.2151 67.6308 50.1769C67.2407 50.1769 66.9286 50.0243 66.9286 49.7954C66.9286 49.6047 67.2017 49.5666 67.5918 49.681C68.0209 49.8336 68.1379 49.7954 67.9429 49.4903C67.7868 49.2232 67.3577 49.0325 67.0066 48.9943C66.4214 48.9943 66.4214 48.9562 67.0456 48.6892C67.7478 48.4221 67.7478 48.384 67.0846 47.8881C66.6945 47.5829 66.4995 47.5066 66.6555 47.7355C66.8115 48.0025 66.6555 48.2695 66.3434 48.384C65.9533 48.5366 65.8753 48.4221 66.0313 48.0025C66.2264 47.5447 66.1484 47.4684 65.7192 47.6973C65.4072 47.8881 65.4462 47.7355 65.8753 47.2396C66.6165 46.4003 66.3434 45.7518 65.4852 46.4385C65.0951 46.7436 64.822 46.7436 64.5099 46.4385C64.1978 46.1333 63.8857 46.1714 63.4176 46.4385C62.5593 46.9725 60.0626 46.3622 60.1797 45.6755C60.2577 45.4085 60.0626 45.2177 59.7896 45.2177C59.4775 45.2177 59.5165 45.1033 59.9066 44.8363C60.2187 44.6455 60.3747 44.3785 60.2187 44.264C60.1017 44.1496 59.7506 44.3022 59.3995 44.6074C58.8923 45.1414 58.8143 45.1033 58.6192 44.4548C58.5022 44.0352 58.1901 43.6918 57.878 43.6918C57.4879 43.6918 57.4879 43.7681 57.956 44.0733C58.8923 44.6455 58.2681 44.7218 56.7857 44.2259C55.5764 43.8063 55.5374 43.73 56.3956 43.6918C56.9418 43.6918 57.644 43.5011 57.956 43.3104C58.4242 43.0052 58.3852 42.9289 57.683 42.9289C56.5907 42.9289 56.2006 42.2804 56.8247 41.5556C57.2148 41.0978 57.1758 41.0596 56.6297 41.2504C56.2396 41.403 56.0055 41.2885 56.0055 40.9834C56.0055 40.5637 55.8885 40.5637 55.6154 41.0215C55.3033 41.4793 55.1863 41.5174 54.8742 41.0596C54.6401 40.7163 54.4451 40.6782 54.289 40.9834C54.133 41.2122 54.211 41.403 54.4451 41.403C54.6791 41.403 54.7571 41.5556 54.6401 41.7845C54.5231 41.9752 54.6011 42.1659 54.8742 42.1659C55.1473 42.1659 55.2643 42.2422 55.1473 42.3567C54.7571 42.7763 53.7429 42.0896 53.5088 41.2885C53.3918 40.7926 53.1577 40.6019 53.0017 40.8308C52.5725 41.3648 51.6363 41.2885 50.9731 40.7163C50.505 40.2585 50.622 39.9915 51.7533 38.9234C53.2747 37.5119 54.0549 37.5882 56.0835 39.4574C56.7467 40.0678 57.5269 40.4874 57.839 40.373C58.1121 40.2585 58.3462 40.373 58.3462 40.64C58.3462 40.8689 58.1901 40.9452 57.956 40.8308C57.761 40.7163 57.5659 40.7545 57.5659 40.9071C57.5659 41.0978 57.917 41.4411 58.3462 41.7082C58.8143 41.9752 59.0484 42.3948 58.8923 42.6237C58.7363 42.8907 58.7753 42.9289 59.0484 42.7763C59.3214 42.6237 59.5165 42.7 59.5165 42.8907C59.5165 43.1196 59.8286 43.3104 60.2187 43.3104C60.7258 43.2722 60.6478 43.0815 59.7896 42.3567C59.0484 41.7082 58.8923 41.403 59.2824 41.403C59.6335 41.403 59.9066 41.2122 59.9066 40.9834C59.9066 40.7926 59.7506 40.6782 59.5555 40.8308C59.3604 40.9452 58.8533 40.6019 58.4242 40.0678C57.9951 39.5719 57.5659 39.2286 57.4489 39.343C57.3709 39.4574 56.6297 39.1141 55.8885 38.6182C55.1082 38.0841 54.5621 37.5882 54.6791 37.4738C54.7962 37.3593 54.5621 37.3593 54.133 37.4738C53.2357 37.7027 52.8066 37.2067 53.2747 36.4438C53.5088 36.1005 54.367 35.9097 55.7714 35.9097C56.9808 35.8716 57.956 35.7571 57.956 35.6045C57.956 34.9942 58.0341 34.7271 58.2681 34.3457C58.4242 34.1168 58.2291 34.2312 57.878 34.6509C57.3709 35.1849 56.7857 35.2994 55.3813 35.2231C54.367 35.1468 53.4698 34.9179 53.3918 34.689C53.2357 34.2312 54.9522 33.7735 56.7467 33.7735C57.2929 33.7735 58.0341 33.5827 58.3462 33.3538C58.7753 33.0868 58.5412 33.0487 57.5269 33.2394C56.6687 33.3538 56.0055 33.3157 55.8495 33.0487C55.6934 32.7816 55.8885 32.629 56.3176 32.629C56.7467 32.629 57.2929 32.362 57.5659 32.0568C57.839 31.7135 58.1511 31.5609 58.2681 31.6372C58.3462 31.7516 58.9313 31.599 59.5555 31.2939C61.0769 30.4928 61.311 30.5691 60.4528 31.5609L59.7115 32.4383L60.5698 31.7135C61.0769 31.332 61.35 30.8361 61.233 30.6454C61.1159 30.4546 61.233 30.3402 61.5061 30.3783C62.3643 30.5691 64.1978 29.9969 64.1978 29.5772C64.1978 29.3483 64.4319 29.1958 64.705 29.1958C65.8363 29.1576 66.1874 28.6235 65.6802 27.5936C65.1341 26.6399 64.822 26.7162 64.0028 28.0513C63.6907 28.5472 63.7297 28.5472 64.3148 28.0895C64.6659 27.8224 64.978 27.7461 64.978 27.9369C64.978 28.4709 62.7934 29.9587 62.0132 29.9587C61.428 29.9587 61.428 29.8824 62.0912 29.1195C62.4813 28.6617 62.6374 28.4328 62.4033 28.5472C62.1302 28.6998 61.8572 28.3565 61.7011 27.6317C61.35 25.8388 61.389 25.7625 62.4423 25.7625C62.9885 25.7625 63.4176 25.5717 63.4176 25.381C63.4176 25.1521 63.1445 24.9995 62.8324 24.9995C62.5203 24.9995 62.2473 24.7325 62.2473 24.4273C62.2473 23.9314 62.0912 23.9695 61.428 24.5799C60.9599 24.9995 60.7258 25.4954 60.8429 25.7243C60.9989 25.9151 61.194 26.8687 61.272 27.8224C61.467 29.7298 60.9209 30.3783 58.6582 30.9124C58.0731 31.065 57.4099 31.4083 57.1758 31.6753C56.9418 31.9805 56.4736 32.095 56.1615 31.9805C55.8885 31.8661 55.4984 32.0568 55.3813 32.4001C55.0692 33.2012 53.3137 33.2012 53.0017 32.4001C52.8846 32.0568 53.0017 31.6372 53.3137 31.4083C53.7429 31.1031 53.7429 31.065 53.1967 31.2176C52.8456 31.332 52.4945 31.2557 52.4165 31.065C52.3385 30.8361 51.9874 30.7979 51.6363 30.9124C51.1291 31.1031 51.1681 31.2939 51.9874 32.095C53.0407 33.125 52.9236 33.8498 51.8313 32.9724C51.4022 32.629 51.2852 32.5909 51.4802 32.8961C51.6753 33.2394 51.4412 33.392 50.7 33.392C49.8418 33.392 49.7247 33.2775 50.0758 32.9342C50.7 32.3239 50.661 31.6753 50.0368 32.1713C49.7247 32.4383 49.3346 32.4001 48.8275 32.0187C48.4374 31.7516 47.9692 31.5609 47.8522 31.6753C47.6962 31.7516 47.5401 31.4083 47.5011 30.8742C47.4231 29.8824 47.8132 29.7298 48.9835 30.3402C49.7637 30.7598 53.2747 30.4165 53.2747 29.9206C53.2747 29.7298 53.0017 29.6917 52.6506 29.8443C52.1044 30.035 52.0654 29.9587 52.4555 29.272C52.7286 28.8143 52.7676 28.4328 52.6115 28.4328C52.4555 28.4328 52.5725 28.2421 52.8846 28.0513C53.6648 27.5554 55.8885 27.5554 56.2006 28.0513C56.3176 28.2421 56.2396 28.4328 55.9665 28.4328C55.6934 28.4328 55.5764 28.5091 55.6934 28.6235C55.7714 28.738 56.3176 28.5854 56.9028 28.3184C58.3071 27.708 58.2681 26.9069 56.8247 27.0976C56.0445 27.1739 55.6154 27.0213 55.4593 26.6399C55.3033 26.2584 55.4593 26.1058 56.1225 26.1439C57.839 26.2965 58.0341 26.1821 57.3319 25.4954C56.8247 24.9995 56.5907 24.9614 56.4736 25.3047C56.3956 25.5336 56.1615 25.7625 55.9665 25.7625C55.7324 25.7625 55.6544 25.6099 55.7714 25.4191C56.2006 24.7325 54.7571 24.6562 53.7429 25.3047C53.1967 25.648 52.8456 25.7243 53.0017 25.4573C53.3137 24.9995 52.9236 24.8469 51.5973 24.9614C51.2462 24.9995 50.817 24.8088 50.739 24.5036C50.505 23.9314 48.5544 24.0077 47.189 24.6943C46.7209 24.8851 45.9797 24.9995 45.4725 24.9232C44.3022 24.7706 43.9511 23.8551 45.0434 23.8551C45.5115 23.8551 45.8626 23.6262 45.8626 23.2829C45.8626 22.9777 45.5506 22.7107 45.1995 22.7107C44.6143 22.7107 44.5753 22.787 45.0824 23.0921C45.8626 23.5881 45.0434 23.5881 43.7561 23.0921C42.5467 22.6344 42.4687 21.9859 43.522 20.8796C44.1852 20.1929 44.7703 20.0403 46.8769 20.0403C49.0615 20.0403 49.5687 19.9259 50.1929 19.1629C50.583 18.7052 50.8951 18.133 50.9341 17.9041C50.9341 17.37 53.8989 17.9041 54.6791 18.5526C54.9912 18.8196 55.2253 18.7815 55.4203 18.5144C55.7714 17.9422 55.7324 17.9041 53.4698 17.4844C51.5192 17.1411 51.5192 17.1411 51.5973 15.7297C51.6753 14.28 51.4022 14.013 50.661 14.7378C50.3489 15.043 50.0758 14.9286 49.6857 14.3563C49.3736 13.8986 49.0225 13.6315 48.9055 13.746C48.8275 13.8604 48.7104 13.7078 48.7104 13.4027C48.7104 13.0975 49.0225 12.983 49.5297 13.0975C50.2709 13.2882 50.3099 13.2501 49.7637 12.5634C49.4517 12.1819 49.1786 11.8005 49.1396 11.7242C49.1006 11.6479 48.5154 11.8767 47.8132 12.2201C47.111 12.5634 46.6819 12.9449 46.7989 13.0593C46.9159 13.1738 47.267 13.0975 47.5401 12.8686C47.9302 12.5253 48.0863 12.5634 48.0863 12.983C48.0863 13.2882 47.9692 13.4408 47.8132 13.3645C47.6572 13.2882 46.8769 13.5552 46.0187 13.9367C44.4582 14.7378 43.3269 14.8904 43.0148 14.3945C42.9368 14.2419 42.9368 14.3182 42.9758 14.5852C43.0539 14.8523 42.3907 15.5771 41.5714 16.2256C40.7132 16.8741 40.05 17.5226 40.05 17.6752C40.089 17.8278 40.089 18.3618 40.05 18.8959C40.011 19.5444 39.894 19.697 39.6989 19.3537C39.3868 18.8959 40.3621 14.1656 40.9473 13.2501C41.0643 13.0212 41.0253 12.7541 40.7912 12.6016C40.5962 12.4871 40.4011 12.6016 40.4011 12.9067C40.4011 13.2119 40.128 13.5552 39.8159 13.7078C39.0357 13.9749 39.0747 13.6697 39.972 12.7541C40.4011 12.2964 40.9082 12.0675 41.1033 12.1819C41.3374 12.2964 41.6104 12.1438 41.7275 11.8005C41.8445 11.4953 42.1176 11.3427 42.3517 11.4571C42.5467 11.5716 42.7418 11.4953 42.7418 11.3045C42.7418 11.0757 42.8978 10.8849 43.1319 10.8849C43.3269 10.8849 43.405 11.1519 43.2879 11.4571C43.1319 11.7623 43.2489 12.0293 43.444 12.0293C43.9901 12.0293 43.678 10.4653 43.0929 10.122C42.8198 9.93122 42.8978 9.77863 43.3269 9.62604C43.678 9.47345 43.8341 9.5116 43.717 9.74048C43.3269 10.3508 44.5363 10.1601 45.0824 9.54975C45.5115 9.05383 45.4725 9.01568 44.8874 9.20642C44.3802 9.39716 44.2632 9.35901 44.4582 9.05383C44.6533 8.74865 44.5363 8.67235 44.1462 8.82494C43.7561 8.97754 43.522 8.86309 43.522 8.48161C43.522 8.13828 43.9121 7.79496 44.4192 7.71866C45.2775 7.56607 45.2775 7.56607 44.3412 7.48978C43.8341 7.48978 43.2099 7.71866 42.9758 8.02384C42.4687 8.74865 40.5571 9.13012 40.206 8.59606C39.8159 7.9857 39.3478 8.13829 39.1137 8.97753C38.8797 9.81678 39.2308 9.96937 39.894 9.32086C40.206 9.01568 40.4011 9.13012 40.5962 9.74048C40.8302 10.4271 40.9473 10.4653 41.4934 10.0457C42.0786 9.5879 42.1176 9.62604 41.6495 10.1983C41.1423 10.8086 40.5181 10.8468 39.0747 10.2745C38.5286 10.0838 38.4115 10.122 38.6066 10.4271C38.7626 10.6942 39.1137 10.8849 39.4258 10.8849C39.972 10.8849 40.011 11.4953 39.5038 12.2964C38.9967 13.0593 38.3725 12.8686 38.6456 12.0293C38.9577 11.0756 38.5286 11.0375 37.8264 11.9149C37.4363 12.449 37.2412 12.4871 36.8511 12.1438C36.617 11.9149 36.1489 11.8005 35.8758 11.9149C35.5637 12.0293 35.3297 11.9149 35.3297 11.686C35.3297 11.4571 35.4857 11.2664 35.6808 11.2664C35.8758 11.2664 36.1099 10.9612 36.2659 10.5797C36.383 10.2364 36.617 9.70234 36.7341 9.4353C36.8511 9.20642 36.7731 8.97753 36.5 8.97753C36.2659 8.97753 36.1489 9.13012 36.2659 9.32086C36.383 9.5116 36.2269 9.85493 35.9148 10.122C35.6028 10.389 35.3297 10.4653 35.2907 10.2745C35.2907 10.0838 35.1346 10.2746 34.9006 10.6942C34.6665 11.2282 34.6275 10.6942 34.7055 9.01568C34.8225 6.87942 35.0176 6.42165 35.8758 5.65869C36.8901 4.81945 37.9044 4.43797 37.5143 5.08648C37.3973 5.27722 37.8654 5.31536 38.4896 5.23907C40.089 5.01018 39.5819 4.66685 37.4753 4.55241C36.0709 4.47612 35.6418 4.62871 35.2907 5.20092ZM19.8033 12.983C19.6082 14.1275 19.2962 14.2038 18.672 13.2119C18.2429 12.5634 18.3209 12.449 19.0621 12.2964C19.5302 12.2201 19.9593 12.1056 19.9593 12.0675C19.9984 12.0675 19.9203 12.449 19.8033 12.983ZM36.6951 12.4108C36.8121 12.6397 36.539 12.7923 36.0319 12.7923C35.3297 12.7923 35.2517 12.716 35.7198 12.4108C36.461 11.953 36.422 11.953 36.6951 12.4108ZM22.8852 13.5934C23.0802 13.8986 23.1973 14.8141 23.1973 15.6534C23.1582 16.8741 23.1192 16.9885 22.8852 16.2637C22.6511 15.3482 22.144 14.9667 20.8176 14.5471C20.4275 14.4326 20.1154 14.013 20.1154 13.5934C20.1154 13.0212 20.3495 12.8686 21.3247 12.9449C21.9879 12.983 22.6901 13.2882 22.8852 13.5934ZM36.9291 13.4408C37.0852 14.9667 37.0462 16.2256 36.8511 16.2256C36.0319 16.2256 35.6418 14.7378 36.0709 13.2501C36.1489 13.0212 36.8901 13.2119 36.9291 13.4408ZM39.3868 14.5089C40.128 15.0811 40.128 15.0811 39.2698 15.0811C38.7236 15.0811 38.4896 14.9286 38.6846 14.6234C38.8407 14.3563 38.8017 14.3182 38.4896 14.4708C38.2555 14.6234 38.1385 14.9286 38.2555 15.1193C38.4115 15.31 38.2945 15.4626 38.0995 15.4626C37.6313 15.4626 37.5143 14.5852 37.9434 14.2038C38.2945 13.8223 38.5286 13.8986 39.3868 14.5089ZM49.5297 15.1574C49.8418 15.6152 50.2709 15.806 50.544 15.6534C50.8561 15.4626 50.9731 15.6152 50.856 16.073C50.739 16.6071 50.3879 16.7978 49.5687 16.7215L48.3984 16.6833L49.3736 17.103C49.9198 17.3319 50.3879 17.5607 50.4659 17.5989C50.544 17.637 50.3099 18.133 49.9198 18.7052C49.4517 19.3918 48.9445 19.697 48.2423 19.6589C44.7313 19.43 43.8341 19.6207 42.5467 20.994C41.5324 22.1003 41.2203 22.2529 40.8692 21.8333C40.4011 21.2992 40.5962 20.8033 41.2593 20.8033C41.4544 20.8033 41.4934 20.994 41.3374 21.2611C41.1813 21.5281 41.2203 21.5662 41.5324 21.4136C41.8835 21.1848 41.8835 20.994 41.5714 20.6125C41.2203 20.2311 41.6885 19.8496 43.717 18.9341C45.1214 18.2855 46.9159 17.7515 47.7352 17.7133C48.8665 17.7133 49.0225 17.637 48.3984 17.4082C47.072 16.8741 44.8484 17.2174 43.8731 18.0948C43.3659 18.5526 42.6247 18.8578 42.2736 18.7815C41.8835 18.667 41.6495 18.7815 41.6885 18.9722C41.7275 19.2011 41.5714 19.43 41.2984 19.5444C41.0253 19.6589 40.8692 19.2774 40.8692 18.5144C40.9082 17.1793 42.8588 15.2719 43.7951 15.6152C44.1071 15.7297 44.2242 15.6534 44.1071 15.4626C43.9901 15.2337 44.1071 15.0811 44.4192 15.0811C44.7313 15.0811 45.4725 14.8523 46.0187 14.5471C47.3061 13.8986 48.8275 14.1656 49.5297 15.1574ZM21.9879 15.5389C22.261 15.8059 22.456 16.2637 22.456 16.5689C22.456 16.9885 22.3 16.9504 21.6758 16.4163C20.8566 15.6915 20.6615 15.0811 21.2077 15.0811C21.3637 15.0811 21.7148 15.2719 21.9879 15.5389ZM36.6951 16.607C37.0071 17.103 36.656 17.103 35.6808 16.607C35.2907 16.3782 34.9396 16.0348 34.9396 15.8059C34.9396 15.3863 36.3049 15.9967 36.6951 16.607ZM39.6209 16.0348C39.6209 16.34 39.4648 16.607 39.2698 16.607C39.0747 16.607 38.9967 16.9885 39.1137 17.4463L39.3088 18.3237L38.6456 17.4463C38.2945 16.9504 38.0995 16.34 38.2165 16.0348C38.4896 15.2719 39.6209 15.31 39.6209 16.0348ZM36.1099 17.9804C36.1099 18.5907 35.4857 18.7052 35.1346 18.133C34.8225 17.637 35.2907 16.9122 35.7588 17.1793C35.9538 17.3319 36.1099 17.6752 36.1099 17.9804ZM38.4896 18.5907C38.9187 19.2774 39.1918 20.2311 39.1137 20.6888C39.0357 21.1848 39.1137 21.5662 39.2698 21.5662C39.4648 21.5662 39.6209 22.1384 39.6209 22.8633C39.6209 24.4273 38.8017 24.8469 37.4363 24.0077C36.578 23.4355 36.5 23.1303 36.539 21.0322C36.617 17.0267 37.0852 16.4545 38.4896 18.5907ZM24.9528 18.8578C25.1088 19.0485 24.8357 19.1248 24.4456 19.0103C24.0165 18.8959 23.5874 18.5907 23.4703 18.2855C23.3143 17.8659 23.3923 17.8278 24.0165 18.133C24.4066 18.3237 24.8357 18.667 24.9528 18.8578ZM27.3714 21.4899C27.2544 21.5662 26.8643 21.5281 26.4742 21.4136C25.889 21.1848 25.889 21.1085 26.3571 20.8033C26.7473 20.5363 26.7863 20.4218 26.4742 20.4218C26.2011 20.4218 25.967 20.1929 25.967 19.9259C26.006 19.697 26.3571 19.8877 26.7863 20.3837C27.2154 20.8796 27.4495 21.3755 27.3714 21.4899ZM31.1555 23.054C31.3115 23.054 31.7017 23.0921 32.0137 23.0921C32.3258 23.0921 32.5989 23.4355 32.5989 23.8551C32.5989 24.2747 32.872 24.7325 33.1841 24.8469C33.4962 24.9995 33.6522 25.2284 33.5352 25.4573C33.3791 25.648 33.106 25.648 32.794 25.381C32.0918 24.8088 30.8824 25.3047 31.4286 25.9532C31.7017 26.2584 32.7549 26.411 34.5104 26.3347C35.9929 26.2965 37.3582 26.3347 37.5923 26.4873C38.0604 26.7925 38.6846 28.0132 38.9967 29.3483C39.2308 30.2257 39.1528 30.3783 38.6846 30.2257C38.3335 30.0731 38.0604 30.1113 38.0604 30.302C38.0604 30.5691 36.8511 31.2557 35.9148 31.4846C35.7198 31.5228 35.0956 31.7135 34.6275 31.9042C33.8473 32.2094 33.5352 32.095 32.911 31.2939C32.1308 30.302 31.4286 30.035 31.4286 30.7598C31.4286 30.9505 31.6236 31.0268 31.8577 30.8742C32.1308 30.7217 32.2478 30.8361 32.1308 31.1413C31.8967 31.8279 30.2973 32.095 30.4143 31.4083C30.4533 31.1413 30.6093 30.6835 30.8044 30.4165C30.9995 30.1113 30.8044 29.6535 30.3363 29.2339C29.7901 28.8143 29.361 27.6698 29.0489 26.0676C28.4637 23.0158 28.6978 22.2147 29.9462 22.6725C30.4533 22.8633 30.9604 23.0158 31.1555 23.054ZM44.0681 23.9314C43.9511 24.1221 43.6 24.1984 43.2879 24.084C42.9758 23.9695 42.7418 24.1221 42.7418 24.4273C42.7418 24.7325 42.4687 24.9995 42.1566 24.9995C41.4154 24.9995 41.4154 24.8088 42.1956 23.8932C42.8198 23.2066 44.5363 23.2066 44.0681 23.9314ZM35.9538 24.2747C36.6951 24.6943 37.2802 25.1903 37.2802 25.3047C37.2802 25.4573 36.578 25.5717 35.7198 25.5717C34.2374 25.6099 33.9253 25.3428 34.1203 24.1603C34.1203 24.0077 33.8863 23.9695 33.5742 24.084C33.2621 24.2366 32.989 24.1221 32.989 23.8932C32.989 23.2066 34.5495 23.3973 35.9538 24.2747ZM26.3181 24.7325C28.0346 25.0377 28.2297 25.2666 27.2934 25.9914C26.6692 26.4873 26.6302 26.5636 27.2544 26.3728C27.8006 26.2202 28.1907 26.6017 27.8396 26.9832C27.8006 27.0595 28.0736 27.6317 28.5027 28.3184C28.8929 29.005 29.1269 29.6535 28.9709 29.8061C28.5418 30.2257 26.3571 29.272 24.9528 28.0513C24.2115 27.441 23.4313 26.9069 23.2363 26.9069C23.0412 26.9069 22.8071 26.5636 22.6511 26.1821C22.4951 25.7243 22.183 25.4954 21.8319 25.648C21.4808 25.7625 21.2857 25.6099 21.2857 25.114C21.2857 24.4654 21.5198 24.3892 23.1582 24.4273C24.1725 24.4655 25.5769 24.618 26.3181 24.7325ZM44.3412 24.8851C44.3412 25.0758 44.4192 25.4954 44.4973 25.8388C44.5753 26.2202 44.4582 26.5254 44.2632 26.5254C44.0681 26.5254 43.9511 26.6399 43.9901 26.7925C44.1462 27.2884 42.1956 29.9587 41.6885 29.9587C41.1423 29.9587 41.0643 29.5772 41.4154 28.6617C41.5324 28.3184 41.9225 28.0513 42.2736 28.0513C42.5857 28.0513 42.7418 27.9369 42.5857 27.7461C42.4297 27.5936 42.1176 27.4791 41.9225 27.4791C41.3374 27.4791 41.4934 26.9832 42.4297 25.7625C43.2099 24.6943 44.2632 24.2366 44.3412 24.8851ZM50.4269 25.0758C51.2852 26.1439 51.2852 26.7925 50.4269 26.7162C49.9588 26.678 49.3736 26.9069 49.1396 27.2502C48.7885 27.708 48.5544 27.7461 48.1253 27.3647C47.8132 27.1358 46.994 26.9069 46.3308 26.8306C45.5896 26.7925 45.0824 26.5254 45.0824 26.2202C45.0824 25.9532 45.2775 25.8388 45.4725 25.9532C45.7066 26.0676 45.8626 25.9914 45.8626 25.8006C45.8626 25.5717 46.2137 25.381 46.6039 25.381C47.033 25.381 47.5011 25.1903 47.6181 24.9995C47.9692 24.4655 49.9978 24.5417 50.4269 25.0758ZM40.011 25.381C40.011 25.5717 39.8159 25.7625 39.5819 25.7625C39.3868 25.7625 39.3088 25.5717 39.4258 25.381C39.5429 25.1521 39.7379 24.9995 39.8549 24.9995C39.933 24.9995 40.011 25.1521 40.011 25.381ZM42.3517 25.5336C42.3517 25.6099 42.0786 25.8006 41.7275 25.9151C41.4154 26.0295 41.2593 25.9914 41.3764 25.7625C41.6104 25.381 42.3517 25.2284 42.3517 25.5336ZM54.367 26.7925C54.0159 27.2121 53.8599 27.2121 53.6258 26.8306C53.3918 26.5254 53.2747 26.4873 53.2747 26.7543C53.2747 27.0213 53.0017 27.3265 52.6506 27.441C52.1434 27.6317 52.1044 27.5936 52.4165 27.1739C52.6896 26.8687 52.7676 26.5254 52.6506 26.411C52.5335 26.2965 52.9626 26.2202 53.6258 26.2202C54.6011 26.2584 54.7571 26.3728 54.367 26.7925ZM46.1747 28.1658C46.5648 27.5554 50.0758 28.4328 49.8418 29.1195C49.7637 29.3483 49.4517 29.5772 49.1396 29.5772C48.7885 29.5772 48.6714 29.3865 48.8275 29.1195C49.0225 28.8524 48.9445 28.8143 48.5544 29.0432C48.2423 29.2339 47.7352 29.3865 47.4231 29.3865C47.111 29.3865 46.6429 29.5009 46.4478 29.6535C45.8626 29.9968 44.9264 29.3865 45.2385 28.8524C45.3945 28.6235 45.3555 28.4328 45.1214 28.4328C44.4582 28.4328 44.1852 29.272 44.7313 29.6154C45.9407 30.302 46.8379 31.065 46.6039 31.2557C46.2918 31.5609 43.1319 30.302 43.1319 29.8824C43.1319 29.6917 43.6 29.0813 44.1462 28.5472C44.9654 27.7461 45.2385 27.6698 45.5115 28.0895C45.7846 28.4709 45.9407 28.5091 46.1747 28.1658ZM51.0121 30.1113C50.9341 30.302 50.661 30.1494 50.4659 29.8061C50.2709 29.4628 50.2319 29.005 50.3879 28.738C50.739 28.2039 51.3632 29.5772 51.0121 30.1113ZM52.2995 28.8143C52.1824 29.005 51.9093 29.1958 51.6753 29.1958C51.4802 29.1958 51.3242 29.005 51.3242 28.8143C51.3242 28.5854 51.5973 28.4328 51.9484 28.4328C52.2604 28.4328 52.4165 28.5854 52.2995 28.8143ZM42.3517 31.7516C42.3517 33.4683 41.9225 34.689 41.5324 34.0786C40.9473 33.2012 41.1033 30.7217 41.7665 30.7217C42.1566 30.7217 42.3517 31.1031 42.3517 31.7516ZM45.0434 31.6372C46.6039 32.4383 46.7209 32.5527 46.0187 32.8961C45.6286 33.125 44.7703 33.4301 44.1071 33.5446C42.9758 33.7735 42.9368 33.7735 42.9368 32.2476C42.9368 31.4083 43.0148 30.7217 43.1319 30.7217C43.2489 30.7598 44.1072 31.1413 45.0434 31.6372ZM38.4506 31.4465C38.4506 31.9042 37.3582 32.2857 37.1242 31.9042C37.0071 31.7135 37.0071 31.4846 37.1632 31.332C37.5143 30.9887 38.4506 31.065 38.4506 31.4465ZM39.7379 34.2312C39.894 35.9097 39.8549 36.0623 39.0747 36.0242C38.2555 36.0242 38.2555 35.986 39.0357 35.6427C39.6989 35.3375 39.6599 35.2994 38.7236 35.452C38.1385 35.5282 37.5533 35.452 37.4363 35.2612C37.3582 35.1086 37.0071 35.0323 36.656 35.1849C35.9148 35.452 36.6951 36.4438 37.7093 36.4438C38.0995 36.4438 38.5286 36.6345 38.6456 36.8253C38.8017 37.0542 39.2698 37.1304 39.7379 37.016C40.206 36.9397 40.4011 36.9397 40.128 37.0542C39.8549 37.1686 39.7769 37.5119 39.894 37.8171C40.011 38.0841 40.2451 38.2367 40.4401 38.1223C40.6352 38.0078 40.7912 38.1604 40.7912 38.5038C40.7912 39.4574 40.3231 40.2585 39.7769 40.2585C39.4648 40.2585 39.2698 40.4111 39.3478 40.6019C39.3868 40.7926 39.2698 41.0215 39.0357 41.0596C38.8407 41.1359 38.5676 40.7926 38.5286 40.2967C38.4115 39.6863 38.5286 39.4956 38.8797 39.6863C39.1918 39.8771 39.2698 39.8389 39.0747 39.5719C38.9187 39.3049 38.5676 39.1141 38.3335 39.1141C38.0604 39.1141 37.3973 38.8471 36.8121 38.5801C35.7978 38.046 35.7198 38.0841 35.7198 38.7708C35.7198 39.1523 35.5247 39.4956 35.2907 39.4956C35.0566 39.4956 34.9786 39.1523 35.1346 38.7326C35.2907 38.2749 35.2126 37.9697 34.9396 37.9697C34.7055 37.9697 34.6275 37.779 34.7445 37.5882C34.8615 37.3593 34.7055 37.2067 34.3934 37.2067C34.0423 37.2067 33.7692 37.016 33.7692 36.8253C33.7692 36.5964 33.9643 36.4438 34.1984 36.4438C34.3934 36.4438 34.4714 36.2149 34.3154 35.9479C34.1593 35.719 34.3934 35.8334 34.9006 36.2149C35.6028 36.8253 35.8368 36.8634 36.2269 36.4438C36.617 36.0623 36.578 35.986 35.9929 36.1768C35.6028 36.3293 35.4077 36.2912 35.5247 36.1005C35.6418 35.9097 35.5637 35.6045 35.3297 35.4901C34.7445 35.1468 35.6808 34.0786 36.344 34.3075C36.617 34.422 36.7731 34.3075 36.656 34.0405C36.578 33.7735 37.1632 33.2394 37.9434 32.8198C38.7626 32.4001 39.4648 32.1331 39.5038 32.2476C39.5429 32.362 39.6209 33.2394 39.7379 34.2312ZM28.5418 32.5527C29.0879 32.8961 29.6731 35.8334 29.1269 35.5282C28.3857 35.0705 24.6797 34.8416 24.9528 35.2612C25.1088 35.452 25.4599 35.5664 25.772 35.4138C26.1621 35.2994 26.3571 35.4901 26.3571 36.0242C26.3571 36.4819 26.5522 36.8253 26.7863 36.8253C26.9813 36.8253 27.0984 36.6727 26.9423 36.4819C26.5522 35.8334 27.2934 35.719 28.1126 36.2912C28.5027 36.5964 28.6588 36.8253 28.3857 36.8253C28.1517 36.8253 28.0346 37.0923 28.1907 37.4356C28.3467 37.8934 28.5028 37.8552 28.8538 37.1686C29.0879 36.7108 29.556 36.2531 29.8681 36.1768C30.3363 36.0242 30.3753 36.0623 29.9071 36.3675C29.478 36.6727 29.556 36.7871 30.2192 37.016C31.2725 37.3212 31.2725 37.9697 30.2582 38.2367C29.8291 38.3512 29.478 38.5801 29.478 38.7708C29.478 38.9615 29.9071 38.8852 30.4533 38.6563C31.8577 38.046 32.0918 38.5801 30.8824 39.6863C29.6731 40.7926 29.0099 40.8689 28.3077 40.0678C28.0346 39.7626 27.6445 39.4956 27.4104 39.4956C27.1764 39.4956 27.3714 39.8389 27.8396 40.2585C28.8929 41.2122 28.8929 41.2504 27.9566 41.5174C27.4104 41.6319 27.2544 41.5556 27.4104 41.1741C27.5665 40.7926 27.4104 40.7163 26.9813 40.8689C26.5912 41.0215 26.3571 40.9071 26.3571 40.6019C26.3571 39.7626 26.8643 39.2286 27.8396 38.9234C28.8929 38.6182 28.8148 38.3893 27.5665 38.1604C27.1374 38.0841 26.7473 38.1604 26.7473 38.3512C26.7473 38.6945 25.2258 39.3049 24.7187 39.1904C24.5626 39.1523 24.5236 39.3812 24.6407 39.6863C24.7967 39.9915 24.7187 40.2585 24.4846 40.2585C23.8214 40.2585 21.6758 38.313 21.6758 37.7408C21.6758 37.4356 21.5198 37.2067 21.3247 37.2067C20.7396 37.2067 20.4665 35.9479 20.9736 35.6427C21.3247 35.4138 21.5588 35.6045 21.7538 36.1768L21.9879 37.016L22.0269 36.1386C22.0659 35.6808 22.3 35.2994 22.5731 35.2994C22.8462 35.2994 23.4703 34.956 23.8995 34.5746C24.6797 33.8498 27.4885 32.2476 27.9176 32.2476C28.0346 32.2476 28.3077 32.4001 28.5418 32.5527ZM48.5154 32.7053C49.2956 33.4683 49.0225 33.7735 48.0082 33.3157C47.4621 33.0868 47.033 32.7435 47.033 32.5527C47.033 32.095 47.9692 32.1713 48.5154 32.7053ZM33.7692 33.0105C33.7692 33.2012 33.6912 33.392 33.6132 33.392C33.4962 33.392 33.3011 33.2012 33.1841 33.0105C33.067 32.7816 33.1451 32.629 33.3401 32.629C33.5742 32.629 33.7692 32.7816 33.7692 33.0105ZM35.3297 33.2394C35.3297 33.3157 35.0566 33.392 34.7445 33.392C34.4324 33.392 34.1593 33.2394 34.1593 33.0105C34.1593 32.8198 34.4324 32.7435 34.7445 32.8579C35.0566 33.0105 35.3297 33.1631 35.3297 33.2394ZM46.4088 34.0405C46.5648 34.1931 47.3841 34.2694 48.2423 34.1931C50.0758 34.0786 51.1681 34.7271 50.505 35.5664C50.1539 35.9479 50.1929 36.2531 50.7 36.749C51.0511 37.1304 51.3242 37.5882 51.3242 37.7027C51.3242 38.1604 49.9978 39.4956 49.5687 39.4956C49.3736 39.4956 49.4517 39.3049 49.7637 39.1141C50.1929 38.8471 49.5687 38.7326 47.7352 38.7326C46.2528 38.7326 45.0824 38.8852 45.0824 39.1141C45.0824 39.343 44.7313 39.343 44.1462 39.1141C43.639 38.9234 43.0929 38.8852 42.9758 38.9997C42.8588 39.1523 42.7418 38.5038 42.7418 37.6264C42.7418 36.6345 42.8978 36.1005 43.1319 36.2531C43.3659 36.4056 43.444 36.5964 43.3659 36.749C43.2879 36.9016 43.678 37.3593 44.2242 37.779L45.2385 38.5038L44.3412 37.2449C43.561 36.2149 43.522 35.9097 43.9511 35.6427C44.3412 35.4138 44.3412 35.2994 44.0291 35.2994C43.2099 35.2994 43.444 34.689 44.4192 34.2312C45.4725 33.7353 46.0187 33.6972 46.4088 34.0405ZM32.0918 35.3757C31.3896 35.8334 31.0385 35.7571 31.0385 35.1468C31.0385 34.8416 31.2725 34.5364 31.5456 34.422C32.2088 34.1931 32.6769 35.0323 32.0918 35.3757ZM51.3632 36.1768C50.9731 36.5201 50.9341 36.4819 51.1681 35.9479C51.2852 35.5664 51.5192 35.3757 51.6363 35.4901C51.7533 35.6045 51.6363 35.9097 51.3632 36.1768ZM52.5335 36.3293C52.0654 37.0923 51.9874 36.8634 52.3385 35.8716C52.4945 35.5282 52.6896 35.3375 52.7676 35.452C52.8846 35.5282 52.7676 35.9479 52.5335 36.3293ZM19.3352 38.7326C19.3352 38.9234 19.2571 39.1141 19.1791 39.1141C19.0621 39.1141 18.867 38.9234 18.75 38.7326C18.633 38.5038 18.711 38.3512 18.906 38.3512C19.1401 38.3512 19.3352 38.5038 19.3352 38.7326ZM37.6313 40.2585C37.9824 40.7545 38.0604 41.0596 37.7874 40.9071C37.5533 40.7545 37.0852 40.9071 36.7731 41.2122C35.9929 41.937 34.9396 41.937 34.9396 41.2122C34.9396 40.9071 35.0956 40.64 35.2907 40.64C35.4857 40.64 35.7978 40.2967 35.9148 39.8389C36.2269 38.8852 36.8121 39.0378 37.6313 40.2585ZM43.9121 40.2204C43.9121 40.4111 43.639 40.64 43.3269 40.7926C42.9758 40.9071 42.7418 40.7926 42.7418 40.4493C42.7418 40.1441 43.0148 39.8771 43.3269 39.8771C43.639 39.8771 43.9121 40.0297 43.9121 40.2204ZM47.4231 40.64C47.111 40.8689 47.033 41.0215 47.228 41.0215C47.4621 41.0215 47.8132 41.6319 48.0473 42.3567C48.3984 43.3866 48.3593 43.6918 47.9302 43.8444C47.5791 43.997 47.5011 43.8826 47.6571 43.6155C47.8522 43.3485 47.6181 43.2722 46.9159 43.3866C45.6286 43.6155 43.7951 42.0515 44.8874 41.6319C45.2385 41.5174 45.7456 41.5174 45.9407 41.67C46.2137 41.8226 46.2918 41.6319 46.1747 41.0978C45.9797 40.4874 46.1357 40.2585 46.7989 40.1823C47.8522 39.9915 48.1253 40.2204 47.4231 40.64ZM25.967 40.64C25.967 40.8308 25.772 41.0215 25.5379 41.0215C25.3429 41.0215 25.2648 40.8308 25.3819 40.64C25.4989 40.4111 25.694 40.2585 25.811 40.2585C25.889 40.2585 25.967 40.4111 25.967 40.64ZM48.9835 41.0215C48.9835 41.2122 48.8275 41.403 48.5934 41.403C48.3984 41.403 48.2033 41.2122 48.2033 41.0215C48.2033 40.7926 48.3984 40.64 48.5934 40.64C48.8275 40.64 48.9835 40.7926 48.9835 41.0215ZM15.161 41.2885C14.6148 41.4793 14.4588 42.2041 14.9659 42.1278C15.122 42.0896 15.5901 42.1278 16.0192 42.1659C16.6824 42.2422 16.6824 42.2804 15.8242 42.5474C14.3808 43.0052 13.9517 42.967 14.0297 42.433C14.1467 41.67 14.6538 41.0215 15.161 41.0596C15.5121 41.0596 15.5121 41.1359 15.161 41.2885ZM48.9835 42.1659C48.9835 42.3567 48.8275 42.5474 48.5934 42.5474C48.3984 42.5474 48.2033 42.3567 48.2033 42.1659C48.2033 41.937 48.3984 41.7845 48.5934 41.7845C48.8275 41.7845 48.9835 41.937 48.9835 42.1659ZM12.1181 42.9289C12.2352 43.1196 12.0011 43.3104 11.533 43.3104C11.0648 43.3104 10.8308 43.1196 10.9478 42.9289C11.0648 42.7 11.3379 42.5474 11.533 42.5474C11.728 42.5474 12.0011 42.7 12.1181 42.9289ZM26.2011 43.3104C26.2011 44.264 25.0698 44.1877 24.8747 43.1959C24.7967 42.7763 24.9918 42.5474 25.4599 42.5474C25.928 42.5474 26.2011 42.8144 26.2011 43.3104ZM32.3258 43.9207C31.6626 44.4166 31.6626 44.4166 32.3258 44.4548C32.6769 44.4548 32.989 44.6074 32.989 44.7981C32.989 45.1414 28.3857 45.7137 27.8786 45.3703C27.4104 45.1033 27.4495 44.4548 27.9566 44.4548C28.1517 44.4548 28.2297 44.6455 28.0736 44.8744C27.8786 45.2177 28.2297 45.2559 29.322 45.0651C31.1165 44.7218 31.7407 44.264 30.8434 43.9207C30.4143 43.7681 30.2973 43.8444 30.4923 44.1496C30.6874 44.4548 30.5703 44.4929 30.1022 44.3403C29.7121 44.1877 29.1659 44.0733 28.8538 44.0733C28.5808 44.0733 28.4247 43.8444 28.5418 43.5392C28.8148 42.8526 30.4923 42.6237 31.9357 43.0433C32.95 43.3866 32.989 43.4248 32.3258 43.9207ZM44.6143 43.4248C44.9654 43.6918 44.9654 43.9207 44.6533 44.3022C44.1072 44.9888 43.522 44.9507 42.5857 44.264C42.0006 43.8063 41.9225 43.6155 42.3126 43.1578C42.7808 42.5855 43.639 42.7 44.6143 43.4248ZM54.4451 43.3485C54.4451 43.5774 54.289 43.6155 54.0549 43.5011C53.8599 43.3866 53.6648 43.0815 53.6648 42.8907C53.6648 42.6618 53.8599 42.6237 54.0549 42.7381C54.289 42.8526 54.4451 43.1578 54.4451 43.3485ZM5.68132 43.6918C6.18846 43.997 6.18846 44.0733 5.6033 44.0733C5.2522 44.0733 4.82308 43.8826 4.70605 43.6918C4.39396 43.1959 4.9011 43.1959 5.68132 43.6918ZM49.7637 44.0733C49.7637 44.264 49.6077 44.4548 49.3736 44.4548C49.1786 44.4548 48.9835 44.264 48.9835 44.0733C48.9835 43.8444 49.1786 43.6918 49.3736 43.6918C49.6077 43.6918 49.7637 43.8444 49.7637 44.0733ZM55.3813 44.9126C55.2643 45.0651 55.4593 45.2177 55.8104 45.2177C56.1615 45.2177 56.3566 45.3703 56.2006 45.5611C55.8885 46.0951 54.4841 45.9044 54.7181 45.3703C54.7962 45.1033 54.6791 44.7981 54.4451 44.6455C54.094 44.4166 54.094 44.264 54.4841 44.0352C55.0302 43.73 55.6934 44.3785 55.3813 44.9126ZM34.1593 44.2259C34.1593 44.3403 34.0033 44.5311 33.7692 44.6455C33.5742 44.76 33.3791 44.6837 33.3791 44.4929C33.3791 44.264 33.5742 44.0733 33.7692 44.0733C34.0033 44.0733 34.1593 44.1496 34.1593 44.2259ZM46.2528 45.1033C46.2528 45.2177 46.0187 45.2177 45.7846 45.1033C45.5115 45.027 45.0824 45.2177 44.8093 45.5611C44.3802 46.1333 44.3412 46.0951 44.3022 45.5229C44.3022 45.1796 44.5363 44.8363 44.8093 44.7218C45.3165 44.5692 46.2528 44.7981 46.2528 45.1033ZM35.3297 45.2177C35.3297 45.4085 35.0566 45.5992 34.7445 45.5992C34.4324 45.5992 34.1593 45.4085 34.1593 45.2177C34.1593 44.9888 34.4324 44.8363 34.7445 44.8363C35.0566 44.8363 35.3297 44.9888 35.3297 45.2177ZM42.5077 45.6755C43.1319 46.5147 43.0148 47.1251 42.2346 47.1251C41.9615 47.1251 42.0006 46.9725 42.3517 46.7055C42.8198 46.4003 42.7028 46.3622 41.8835 46.5148C40.9863 46.7055 40.7912 46.6292 40.7912 46.057C40.7912 44.6455 41.6495 44.4548 42.5077 45.6755ZM51.3242 45.5992C51.3242 45.7899 51.2462 45.9807 51.1681 45.9807C51.0511 45.9807 50.8561 45.7899 50.739 45.5992C50.622 45.3703 50.7 45.2177 50.8951 45.2177C51.1291 45.2177 51.3242 45.3703 51.3242 45.5992ZM27.0593 46.2096C28.2687 46.5529 28.1517 47.2777 26.5522 48.9943C25.3819 50.2532 24.9918 50.4439 23.7044 50.3677C22.183 50.2914 20.5055 49.6047 20.5055 49.0706C20.5055 48.8799 20.7786 48.5366 21.0907 48.2695C21.4028 48.0025 21.5588 47.6592 21.4418 47.4684C21.3247 47.2777 21.4418 47.1633 21.7538 47.2014C22.0269 47.2777 22.222 47.1251 22.183 46.9344C22.144 46.7055 22.5731 46.5148 23.0802 46.5148C23.6654 46.4766 24.0165 46.6673 24.0165 46.9725C24.0165 47.3921 24.2506 47.3158 24.8747 46.7436C25.811 45.9044 25.811 45.9044 27.0593 46.2096ZM31.7017 46.7436C31.7797 47.5447 30.8044 48.0407 30.4143 47.4303C30.2582 47.2014 30.2973 47.1251 30.5703 47.2777C30.8044 47.3921 31.0775 47.354 31.1945 47.1633C31.3506 46.9725 31.1945 46.8581 30.9604 46.8962C30.1802 47.0107 29.439 47.5447 29.6341 47.8499C29.7511 48.0025 29.4 48.1169 28.8929 48.1169C28.2687 48.1169 28.0736 47.9644 28.2297 47.5066C28.6198 46.4385 29.0489 46.1333 30.3363 46.0951C31.3506 46.0951 31.6626 46.2477 31.7017 46.7436ZM60.8819 46.8962C61.155 46.9344 61.6621 47.1633 61.9742 47.4303C62.2863 47.6973 62.8324 47.8118 63.1445 47.6592C63.4956 47.5447 64.0808 47.621 64.4709 47.8499C65.017 48.1551 64.705 48.2314 63.0275 48.1169C61.8571 48.0407 60.8429 47.7736 60.7648 47.5447C60.6868 47.3158 60.4528 47.2014 60.2577 47.354C60.0626 47.4684 59.5945 47.2777 59.2434 46.8962C58.6192 46.2859 58.6192 46.2859 59.4775 46.5529C59.9846 46.7055 60.6088 46.8581 60.8819 46.8962ZM53.3137 47.3921C53.8209 47.9644 53.7819 47.9644 53.0017 47.5447C52.0654 47.087 51.8703 46.7436 52.4555 46.7436C52.6506 46.7436 53.0407 47.0107 53.3137 47.3921ZM19.8423 47.7736C19.6473 48.2314 19.7253 48.3077 20.1544 48.0788C20.5835 47.8118 20.5445 47.9644 20.0764 48.651C19.7253 49.1851 19.0231 49.6429 18.5159 49.7191C17.6187 49.7954 17.6187 49.7954 18.672 49.2232C19.8423 48.5747 20.1544 48.0025 18.9841 48.6129C18.3989 48.918 18.2038 48.8799 18.0088 48.384C17.8527 48.0407 17.8528 47.6973 17.9698 47.5829C18.0868 47.4684 18.1648 47.5829 18.1648 47.8881C18.1648 48.2314 18.3989 48.2314 19.0621 47.7736C20.1544 47.0107 20.1544 47.0107 19.8423 47.7736ZM45.9797 47.6592C46.1357 48.0788 46.0187 48.1551 45.5506 48.0025C45.0044 47.7736 44.9654 47.8499 45.3945 48.3458C45.6676 48.6892 46.1747 48.8799 46.5648 48.7655C46.9159 48.6892 47.5791 48.8799 48.0082 49.2232C48.4374 49.5666 48.5934 49.7573 48.3203 49.6429C48.0863 49.4903 47.7742 49.5666 47.6181 49.7954C47.267 50.3295 46.6429 50.2532 46.7599 49.681C46.7989 49.414 46.4868 49.2232 45.9797 49.2614C45.4725 49.2995 45.1995 49.1469 45.3165 48.9943C45.6286 48.4984 44.1462 48.5747 43.639 49.0706C43.405 49.2995 42.9758 49.414 42.6637 49.3377C42.3907 49.2232 42.7808 48.8799 43.561 48.5366C44.3412 48.2314 45.1214 47.7736 45.2385 47.5447C45.5896 46.9725 45.7456 47.0107 45.9797 47.6592ZM65.8753 49.3377C66.4604 49.9862 66.4604 50.0243 65.7582 50.0625C65.3291 50.1006 64.783 49.7954 64.5879 49.3758C64.0418 48.4221 64.978 48.384 65.8753 49.3377ZM53.8599 49.414C53.9769 49.6047 53.8989 49.7954 53.7039 49.7954C53.4698 49.7954 53.2747 49.6047 53.2747 49.414C53.2747 49.1851 53.3528 49.0325 53.4308 49.0325C53.5478 49.0325 53.7429 49.1851 53.8599 49.414ZM16.0973 49.6429C15.9802 49.7573 15.6291 49.7954 15.356 49.681C15.044 49.5666 15.161 49.4521 15.5901 49.4521C16.0192 49.414 16.2533 49.5284 16.0973 49.6429ZM28.5027 49.7954C28.3857 49.9862 27.9956 50.1769 27.6835 50.1769C27.3714 50.1769 27.1374 49.9862 27.1374 49.7954C27.1374 49.5666 27.4885 49.414 27.9566 49.414C28.3857 49.414 28.6198 49.5666 28.5027 49.7954ZM44.3022 50.1769C44.6533 50.4058 44.9654 50.3677 45.1214 50.1388C45.2775 49.8717 45.4335 49.948 45.5896 50.2914C45.7456 50.711 45.5896 50.8636 45.0824 50.7491C44.1852 50.5965 42.7808 49.8336 43.3269 49.7954C43.561 49.7954 43.9901 49.948 44.3022 50.1769ZM42.3907 51.3213C42.6247 51.3213 42.7028 51.1688 42.5857 51.0162C42.5077 50.8636 42.7418 50.6728 43.1709 50.6728C43.6 50.6347 44.0291 50.8254 44.1462 51.1306C44.2632 51.4358 44.6533 51.5502 45.0044 51.4358C45.4335 51.245 45.5506 51.3595 45.3945 51.7791C45.1995 52.1987 45.3555 52.3132 46.0577 52.1606C46.5258 52.0843 47.072 52.1987 47.189 52.4276C47.3841 52.6947 46.955 52.8472 45.9797 52.8472C44.2632 52.8854 43.3659 53.4195 42.9368 54.7546C42.7808 55.2887 42.4297 56.0135 42.1566 56.3568C41.8055 56.8909 41.7275 56.3568 41.7275 53.4958C41.7275 51.5884 41.7665 50.2914 41.8835 50.6347C41.9615 51.0162 42.1956 51.3213 42.3907 51.3213ZM18.1648 50.9399C17.3846 51.4358 16.8775 51.4358 17.1896 50.9399C17.3066 50.711 17.7357 50.5584 18.0868 50.5584C18.672 50.5584 18.672 50.6347 18.1648 50.9399ZM27.6445 50.9399C27.1374 51.1306 26.7473 51.3976 26.7473 51.5121C26.7473 51.6647 26.9423 51.6265 27.1374 51.5121C27.3714 51.3976 27.5275 51.4358 27.5275 51.6265C27.5275 52.1224 25.2648 54.3731 24.7577 54.3731C24.0945 54.3731 24.5626 53.0761 25.3819 52.6565C25.811 52.4276 26.2011 52.008 26.2791 51.7028C26.4352 51.0162 27.1374 50.5584 27.9176 50.5965C28.2297 50.5965 28.1126 50.7491 27.6445 50.9399ZM46.0967 59.5231C46.2528 60.0953 46.0967 61.2016 45.7066 62.1171C45.3555 63.0327 45.0824 64.1008 45.0824 64.5586C45.0824 65.7411 44.5363 65.8937 43.522 64.9782C42.7808 64.2915 42.7028 63.9482 42.8978 62.3078C43.2489 59.8664 43.405 59.4849 44.4192 59.0272C45.6676 58.4168 45.8236 58.4931 46.0967 59.5231Z" stroke="#008055"/>
</svg>
