<svg width="60" height="60" viewBox="0 0 60 60" fill="none" xmlns="http://www.w3.org/2000/svg">
<path d="M3.33333 26.6667C2.38889 26.6667 1.59778 26.3467 0.96 25.7067C0.32 25.0689 0 24.2778 0 23.3333V3.33333C0 2.38889 0.32 1.59667 0.96 0.956666C1.59778 0.318889 2.38889 0 3.33333 0H23.3333C24.2778 0 25.07 0.318889 25.71 0.956666C26.3478 1.59667 26.6667 2.38889 26.6667 3.33333V23.3333C26.6667 24.2778 26.3478 25.0689 25.71 25.7067C25.07 26.3467 24.2778 26.6667 23.3333 26.6667H3.33333ZM6.66667 6.66667V20V6.66667ZM36.6667 26.6667C35.7222 26.6667 34.9311 26.3467 34.2933 25.7067C33.6533 25.0689 33.3333 24.2778 33.3333 23.3333V3.33333C33.3333 2.38889 33.6533 1.59667 34.2933 0.956666C34.9311 0.318889 35.7222 0 36.6667 0H56.6667C57.6111 0 58.4022 0.318889 59.04 0.956666C59.68 1.59667 60 2.38889 60 3.33333V23.3333C60 24.2778 59.68 25.0689 59.04 25.7067C58.4022 26.3467 57.6111 26.6667 56.6667 26.6667H36.6667ZM40 6.66667V20V6.66667ZM3.33333 60C2.38889 60 1.59778 59.68 0.96 59.04C0.32 58.4022 0 57.6111 0 56.6667V36.6667C0 35.7222 0.32 34.93 0.96 34.29C1.59778 33.6522 2.38889 33.3333 3.33333 33.3333H23.3333C24.2778 33.3333 25.07 33.6522 25.71 34.29C26.3478 34.93 26.6667 35.7222 26.6667 36.6667V56.6667C26.6667 57.6111 26.3478 58.4022 25.71 59.04C25.07 59.68 24.2778 60 23.3333 60H3.33333ZM6.66667 40V53.3333V40ZM46.6667 60C45.7222 60 44.9311 59.68 44.2933 59.04C43.6533 58.4022 43.3333 57.6111 43.3333 56.6667V50H36.5833C35.6389 50 34.8611 49.68 34.25 49.04C33.6389 48.4022 33.3333 47.6111 33.3333 46.6667C33.3333 45.7222 33.6533 44.9311 34.2933 44.2933C34.9311 43.6533 35.7222 43.3333 36.6667 43.3333H43.3333V36.5833C43.3333 35.6389 43.6533 34.8611 44.2933 34.25C44.9311 33.6389 45.7222 33.3333 46.6667 33.3333C47.6111 33.3333 48.4022 33.6522 49.04 34.29C49.68 34.93 50 35.7222 50 36.6667V43.3333H56.75C57.6944 43.3333 58.4722 43.6533 59.0833 44.2933C59.6944 44.9311 60 45.7222 60 46.6667C60 47.6111 59.68 48.4022 59.04 49.04C58.4022 49.68 57.6111 50 56.6667 50H50V56.75C50 57.6944 49.68 58.4722 49.04 59.0833C48.4022 59.6944 47.6111 60 46.6667 60ZM40 6.66667V20H53.3333V6.66667H40ZM6.66667 6.66667V20H20V6.66667H6.66667ZM6.66667 40V53.3333H20V40H6.66667Z" fill="white"/>
</svg>
