<svg width="47" height="60" viewBox="0 0 47 60" fill="none" xmlns="http://www.w3.org/2000/svg">
<path d="M3.33333 53.3333C3.33333 57 6.33333 60 10 60H36.6667C40.3333 60 43.3333 57 43.3333 53.3333V20C43.3333 16.3333 40.3333 13.3333 36.6667 13.3333H10C6.33333 13.3333 3.33333 16.3333 3.33333 20V53.3333ZM13.3333 20H33.3333C35.1667 20 36.6667 21.5 36.6667 23.3333V50C36.6667 51.8333 35.1667 53.3333 33.3333 53.3333H13.3333C11.5 53.3333 10 51.8333 10 50V23.3333C10 21.5 11.5 20 13.3333 20ZM35 3.33333L32.6333 0.966667C32.0333 0.366667 31.1667 0 30.3 0H16.3667C15.5 0 14.6333 0.366667 14.0333 0.966667L11.6667 3.33333H3.33333C1.5 3.33333 0 4.83333 0 6.66667C0 8.5 1.5 10 3.33333 10H43.3333C45.1667 10 46.6667 8.5 46.6667 6.66667C46.6667 4.83333 45.1667 3.33333 43.3333 3.33333H35Z" fill="white"/>
</svg>
