<svg width="64" height="38" viewBox="0 0 64 38" fill="none" xmlns="http://www.w3.org/2000/svg">
<path d="M2 21.5C14 -4.5 50 -4.5 62 21.5" stroke="white" stroke-width="4" stroke-linecap="round" stroke-linejoin="round"/>
<path d="M32 35.5C29.8783 35.5 27.8434 34.6571 26.3431 33.1569C24.8429 31.6566 24 29.6217 24 27.5C24 25.3783 24.8429 23.3434 26.3431 21.8431C27.8434 20.3429 29.8783 19.5 32 19.5C34.1217 19.5 36.1566 20.3429 37.6569 21.8431C39.1571 23.3434 40 25.3783 40 27.5C40 29.6217 39.1571 31.6566 37.6569 33.1569C36.1566 34.6571 34.1217 35.5 32 35.5Z" stroke="white" stroke-width="4" stroke-linecap="round" stroke-linejoin="round"/>
</svg>
