<svg width="64" height="64" viewBox="0 0 64 64" fill="none" xmlns="http://www.w3.org/2000/svg">
<path d="M14.8571 53.4286H6.28571C5.14907 53.4286 4.05898 52.977 3.25526 52.1733C2.45153 51.3696 2 50.2795 2 49.1429V32C2 30.8634 2.45153 29.7733 3.25526 28.9695C4.05898 28.1658 5.14907 27.7143 6.28571 27.7143H57.7143C58.8509 27.7143 59.941 28.1658 60.7447 28.9695C61.5485 29.7733 62 30.8634 62 32V49.1429C62 50.2795 61.5485 51.3696 60.7447 52.1733C59.941 52.977 58.8509 53.4286 57.7143 53.4286H49.1429M14.8571 27.7143V6.28571C14.8571 5.14907 15.3087 4.05898 16.1124 3.25526C16.9161 2.45153 18.0062 2 19.1429 2H44.8571C45.9938 2 47.0839 2.45153 47.8876 3.25526C48.6913 4.05898 49.1429 5.14907 49.1429 6.28571V27.7143M14.8571 44.8571H49.1429V62H14.8571V44.8571Z" stroke="white" stroke-width="4"/>
</svg>
