<svg width="60" height="63" viewBox="0 0 60 63" fill="none" xmlns="http://www.w3.org/2000/svg">
<path d="M38.532 57H13.5C9.363 57 6 53.637 6 49.5C6 45.363 9.363 42 13.5 42H34.5C40.29 42 45 37.29 45 31.5C45 25.71 40.29 21 34.5 21H19.917C18.8153 23.1596 17.4509 25.1749 15.855 27H34.5C36.981 27 39 29.019 39 31.5C39 33.981 36.981 36 34.5 36H13.5C6.057 36 0 42.057 0 49.5C0 56.943 6.057 63 13.5 63H42.279C40.8069 61.1483 39.5498 59.1354 38.532 57Z" fill="white"/>
<mask id="path-2-inside-1_407_9" fill="white">
<path d="M10.5 7.55876V7.57796ZM10.5 21L3.9375 11.3991C3.30575 10.2298 2.98285 8.9119 3.0007 7.57565C3.01855 6.2394 3.37653 4.93105 4.03928 3.77986C4.70202 2.62867 5.64659 1.67448 6.77965 1.01158C7.91272 0.348677 9.19507 0 10.5 0C11.8049 0 13.0873 0.348677 14.2203 1.01158C15.3534 1.67448 16.298 2.62867 16.9607 3.77986C17.6235 4.93105 17.9814 6.2394 17.9993 7.57565C18.0171 8.9119 17.6942 10.2298 17.0625 11.3991L10.5 21Z"/>
</mask>
<path d="M10.5 7.55876V7.57796ZM10.5 21L3.9375 11.3991C3.30575 10.2298 2.98285 8.9119 3.0007 7.57565C3.01855 6.2394 3.37653 4.93105 4.03928 3.77986C4.70202 2.62867 5.64659 1.67448 6.77965 1.01158C7.91272 0.348677 9.19507 0 10.5 0C11.8049 0 13.0873 0.348677 14.2203 1.01158C15.3534 1.67448 16.298 2.62867 16.9607 3.77986C17.6235 4.93105 17.9814 6.2394 17.9993 7.57565C18.0171 8.9119 17.6942 10.2298 17.0625 11.3991L10.5 21Z" fill="white"/>
<path d="M12.5 7.55876C12.5 6.45419 11.6046 5.55876 10.5 5.55876C9.39543 5.55876 8.5 6.45419 8.5 7.55876H12.5ZM8.5 7.57796C8.5 8.68253 9.39543 9.57796 10.5 9.57796C11.6046 9.57796 12.5 8.68253 12.5 7.57796H8.5ZM10.5 21L8.84886 22.1286C9.22159 22.6739 9.8395 23 10.5 23C11.1605 23 11.7784 22.6739 12.1511 22.1286L10.5 21ZM3.9375 11.3991L2.17789 12.3498C2.21093 12.4109 2.24714 12.4703 2.28636 12.5277L3.9375 11.3991ZM10.5 0L10.5 2L10.5 0ZM17.0625 11.3991L18.7136 12.5277C18.7529 12.4703 18.7891 12.4109 18.8221 12.3498L17.0625 11.3991ZM8.5 7.55876V7.57796H12.5V7.55876H8.5ZM12.1511 19.8714L5.58864 10.2705L2.28636 12.5277L8.84886 22.1286L12.1511 19.8714ZM5.69712 10.4485C5.22837 9.58084 4.9872 8.59963 5.00052 7.60236L1.00088 7.54894C0.978503 9.22416 1.38313 10.8787 2.17789 12.3498L5.69712 10.4485ZM5.00052 7.60236C5.01384 6.6051 5.28112 5.63135 5.77256 4.77771L2.30599 2.782C1.47195 4.23074 1.02326 5.8737 1.00088 7.54894L5.00052 7.60236ZM5.77256 4.77771C6.26384 3.92436 6.96064 3.22283 7.78961 2.73784L5.7697 -0.714687C4.33253 0.12613 3.1402 1.33297 2.30599 2.782L5.77256 4.77771ZM7.78961 2.73784C8.61821 2.25307 9.55228 2 10.5 2L10.5 -2C8.83786 -2 7.20723 -1.55571 5.7697 -0.714687L7.78961 2.73784ZM10.5 2C11.4477 2 12.3818 2.25307 13.2104 2.73784L15.2303 -0.714687C13.7928 -1.55571 12.1621 -2 10.5 -2L10.5 2ZM13.2104 2.73784C14.0394 3.22283 14.7362 3.92436 15.2274 4.77771L18.694 2.782C17.8598 1.33297 16.6675 0.12613 15.2303 -0.714687L13.2104 2.73784ZM15.2274 4.77771C15.7189 5.63136 15.9862 6.6051 15.9995 7.60236L19.9991 7.54894C19.9767 5.8737 19.5281 4.23074 18.694 2.782L15.2274 4.77771ZM15.9995 7.60236C16.0128 8.59963 15.7716 9.58084 15.3029 10.4485L18.8221 12.3498C19.6169 10.8787 20.0215 9.22416 19.9991 7.54894L15.9995 7.60236ZM15.4114 10.2705L8.84886 19.8714L12.1511 22.1286L18.7136 12.5277L15.4114 10.2705Z" fill="black" mask="url(#path-2-inside-1_407_9)"/>
<mask id="path-4-inside-2_407_9" fill="white">
<path d="M52.5 46.5588V46.578ZM52.5 60L45.9375 50.3991C45.3058 49.2298 44.9829 47.9119 45.0007 46.5756C45.0186 45.2394 45.3765 43.931 46.0393 42.7799C46.702 41.6287 47.6466 40.6745 48.7797 40.0116C49.9127 39.3487 51.1951 39 52.5 39C53.8049 39 55.0873 39.3487 56.2203 40.0116C57.3534 40.6745 58.298 41.6287 58.9607 42.7799C59.6235 43.931 59.9814 45.2394 59.9993 46.5756C60.0171 47.9119 59.6942 49.2298 59.0625 50.3991L52.5 60Z"/>
</mask>
<path d="M52.5 46.5588V46.578ZM52.5 60L45.9375 50.3991C45.3058 49.2298 44.9829 47.9119 45.0007 46.5756C45.0186 45.2394 45.3765 43.931 46.0393 42.7799C46.702 41.6287 47.6466 40.6745 48.7797 40.0116C49.9127 39.3487 51.1951 39 52.5 39C53.8049 39 55.0873 39.3487 56.2203 40.0116C57.3534 40.6745 58.298 41.6287 58.9607 42.7799C59.6235 43.931 59.9814 45.2394 59.9993 46.5756C60.0171 47.9119 59.6942 49.2298 59.0625 50.3991L52.5 60Z" fill="black"/>
<path d="M54.5 46.5588C54.5 45.4542 53.6046 44.5588 52.5 44.5588C51.3954 44.5588 50.5 45.4542 50.5 46.5588H54.5ZM50.5 46.578C50.5 47.6825 51.3954 48.578 52.5 48.578C53.6046 48.578 54.5 47.6825 54.5 46.578H50.5ZM52.5 60L50.8489 61.1286C51.2216 61.6739 51.8395 62 52.5 62C53.1605 62 53.7784 61.6739 54.1511 61.1286L52.5 60ZM45.9375 50.3991L44.1779 51.3498C44.2109 51.4109 44.2471 51.4703 44.2864 51.5277L45.9375 50.3991ZM52.5 39V41V39ZM59.0625 50.3991L60.7136 51.5277C60.7529 51.4703 60.7891 51.4109 60.8221 51.3498L59.0625 50.3991ZM50.5 46.5588V46.578H54.5V46.5588H50.5ZM54.1511 58.8714L47.5886 49.2705L44.2864 51.5277L50.8489 61.1286L54.1511 58.8714ZM47.6971 49.4485C47.2284 48.5808 46.9872 47.5996 47.0005 46.6024L43.0009 46.5489C42.9785 48.2242 43.3831 49.8787 44.1779 51.3498L47.6971 49.4485ZM47.0005 46.6024C47.0138 45.6051 47.2811 44.6314 47.7726 43.7777L44.306 41.782C43.4719 43.2307 43.0233 44.8737 43.0009 46.5489L47.0005 46.6024ZM47.7726 43.7777C48.2638 42.9244 48.9606 42.2228 49.7896 41.7378L47.7697 38.2853C46.3325 39.1261 45.1402 40.333 44.306 41.782L47.7726 43.7777ZM49.7896 41.7378C50.6182 41.2531 51.5523 41 52.5 41V37C50.8379 37 49.2072 37.4443 47.7697 38.2853L49.7896 41.7378ZM52.5 41C53.4477 41 54.3818 41.2531 55.2104 41.7378L57.2303 38.2853C55.7928 37.4443 54.1621 37 52.5 37V41ZM55.2104 41.7378C56.0394 42.2228 56.7362 42.9244 57.2274 43.7777L60.694 41.782C59.8598 40.333 58.6675 39.1261 57.2303 38.2853L55.2104 41.7378ZM57.2274 43.7777C57.7189 44.6314 57.9862 45.6051 57.9995 46.6024L61.9991 46.5489C61.9767 44.8737 61.5281 43.2307 60.694 41.782L57.2274 43.7777ZM57.9995 46.6024C58.0128 47.5996 57.7716 48.5808 57.3029 49.4485L60.8221 51.3498C61.6169 49.8787 62.0215 48.2242 61.9991 46.5489L57.9995 46.6024ZM57.4114 49.2705L50.8489 58.8714L54.1511 61.1286L60.7136 51.5277L57.4114 49.2705Z" fill="white" mask="url(#path-4-inside-2_407_9)"/>
</svg>
